<svg xmlns="http://www.w3.org/2000/svg" viewBox="0 0 750 500"><g id="freepik--background-complete--inject-117"><path d="M655.62,341.32l14.5-.27,7.15-.12c2.38,0,4.74,0,7.11-.05l-.44.44-.06-12.15.5.5L670,329.61c-4.79,0-9.58-.12-14.38-.17l.28-.27c0,2-.09,4-.14,6Zm0,0-.14-6c0-2-.11-4.08-.13-6.14v-.27h.27c4.8,0,9.59-.16,14.38-.17l14.38-.06h.51v.5l0,12.15v.45h-.45c-2.42,0-4.84,0-7.26-.06l-7.23-.11Z" style="fill:#ebebeb"></path><rect x="671.67" y="344.5" width="28.76" height="12.15" transform="translate(1372.1 701.14) rotate(180)" style="fill:#ebebeb"></rect><rect x="540.67" y="159.49" width="28.76" height="12.15" transform="translate(1110.11 331.12) rotate(180)" style="fill:#ebebeb"></rect><path d="M556.72,187l14.49-.27,7.15-.12c2.38,0,4.75,0,7.12,0L585,187l0-12.15.5.5-14.38-.06c-4.8,0-9.59-.12-14.38-.17l.27-.27c0,2-.09,4-.13,6Zm0,0-.14-6c-.05-2-.12-4.08-.14-6.14v-.27h.28c4.79,0,9.58-.16,14.38-.17l14.38-.06h.5v.5L585.92,187v.45h-.44c-2.42,0-4.85,0-7.27-.06l-7.23-.11Z" style="fill:#ebebeb"></path><path d="M419.78,291.68l14.5-.28,7.15-.11c2.38-.05,4.74,0,7.11-.06l-.44.45-.05-12.16.49.5L434.16,280c-4.79,0-9.58-.11-14.38-.16l.28-.28c0,2-.09,4-.13,6Zm0,0-.14-6c0-2-.11-4.08-.13-6.14v-.27h.27c4.8-.05,9.59-.16,14.38-.16l14.38-.07h.51v.5L449,291.68v.45h-.45c-2.42,0-4.84,0-7.26-.05l-7.23-.11Z" style="fill:#ebebeb"></path><rect x="436.09" y="294.85" width="28.76" height="12.15" transform="translate(900.95 601.85) rotate(180)" style="fill:#ebebeb"></rect><path d="M49.57,356.65l14.5-.28,7.15-.11c2.38-.05,4.74,0,7.11-.06l-.44.45-.06-12.15.5.49L64,344.93c-4.79,0-9.58-.11-14.38-.16l.27-.27c0,2-.08,4-.13,6Zm0,0-.14-6c0-2-.11-4.08-.13-6.13v-.27h.27c4.8-.05,9.59-.16,14.38-.16L78.33,344h.5v.51l0,12.15v.45h-.45c-2.42,0-4.85,0-7.26,0l-7.23-.11Z" style="fill:#ebebeb"></path><path d="M65.62,58.74l14.49-.28,7.15-.11c2.38-.05,4.75,0,7.12-.05l-.45.44-.05-12.15.5.5L80,47c-4.8,0-9.59-.11-14.38-.16l.27-.27c0,2-.09,4-.13,6Zm0,0-.15-6c0-2-.11-4.07-.13-6.13v-.27h.28c4.79-.05,9.58-.15,14.38-.16l14.38-.06h.5v.5l-.06,12.15v.45h-.44c-2.42,0-4.85,0-7.27-.06L79.88,59Z" style="fill:#ebebeb"></path><rect x="49.57" y="61.91" width="28.76" height="12.15" transform="translate(127.9 135.98) rotate(180)" style="fill:#ebebeb"></rect><path d="M671.67,58.74l14.49-.28,7.15-.11c2.38-.05,4.75,0,7.12-.05l-.45.44-.05-12.15.5.5L686.05,47c-4.8,0-9.59-.11-14.38-.16l.27-.27c0,2-.09,4-.13,6Zm0,0-.15-6c0-2-.11-4.07-.13-6.13v-.27h.28c4.79-.05,9.58-.15,14.38-.16l14.38-.06h.5v.5l-.06,12.15v.45h-.44c-2.42,0-4.85,0-7.27-.06L685.93,59Z" style="fill:#ebebeb"></path><rect x="212.99" y="128.8" width="28.76" height="12.15" transform="translate(454.75 269.76) rotate(180)" style="fill:#ebebeb"></rect><path d="M452.41,291.68l14.49-.28,7.15-.11c2.38-.05,4.74,0,7.12-.06l-.45.45-.05-12.16.5.5L466.79,280c-4.8,0-9.59-.11-14.38-.16l.27-.28c0,2-.09,4-.13,6Zm0,0-.15-6c0-2-.11-4.08-.13-6.14v-.27h.28c4.79-.05,9.58-.16,14.38-.16l14.38-.07h.5v.5l-.06,12.16v.45h-.44c-2.43,0-4.85,0-7.27-.05l-7.23-.11Z" style="fill:#ebebeb"></path><path d="M604.05,69.68l5.89-9.49L607,58.39a2.67,2.67,0,0,1-1.23-2.5,13.25,13.25,0,0,0,.05-1.67,2.68,2.68,0,0,1,1.39-2.41l3-1.61L605,40.35,602,42a2.66,2.66,0,0,1-2.77-.18c-.46-.32-.94-.61-1.42-.88a2.64,2.64,0,0,1-1.4-2.41l.11-3.42-11.17-.34-.1,3.43a2.67,2.67,0,0,1-1.56,2.31c-.24.11-.49.24-.73.37s-.48.26-.72.41a2.68,2.68,0,0,1-2.77,0l-2.93-1.82L570.62,49l2.91,1.81a2.66,2.66,0,0,1,1.23,2.5,15.35,15.35,0,0,0-.06,1.66,2.66,2.66,0,0,1-1.38,2.41l-3,1.62,5.28,9.84,3-1.61a2.64,2.64,0,0,1,2.77.17,16,16,0,0,0,1.42.88,2.66,2.66,0,0,1,1.4,2.41l-.11,3.42,11.16.35.11-3.43a2.66,2.66,0,0,1,1.55-2.3c.25-.12.5-.24.74-.38l.72-.4a2.67,2.67,0,0,1,2.79,0Zm-9.45-7.05a9.14,9.14,0,1,1,3.75-12.38A9.14,9.14,0,0,1,594.6,62.63Z" style="fill:#ebebeb"></path><path d="M127,332.79,123.07,326l-2.07,1.2a1.85,1.85,0,0,1-2-.07,10.14,10.14,0,0,0-1-.58,1.86,1.86,0,0,1-1-1.66v-2.39h-7.83v2.39a1.86,1.86,0,0,1-1,1.66,10.14,10.14,0,0,0-1,.58,1.85,1.85,0,0,1-2,.07l-2.07-1.2-3.91,6.78,2.08,1.2a1.85,1.85,0,0,1,.91,1.72c0,.19,0,.39,0,.58s0,.38,0,.57a1.84,1.84,0,0,1-.91,1.72l-2.08,1.21,3.91,6.78,2.08-1.2a1.85,1.85,0,0,1,2,.07c.32.21.66.4,1,.58a1.85,1.85,0,0,1,1,1.65v2.4H117v-2.4a1.85,1.85,0,0,1,1-1.65c.34-.18.68-.37,1-.58a1.85,1.85,0,0,1,1.95-.07l2.08,1.2,3.91-6.78-2.08-1.2a1.86,1.86,0,0,1-.9-1.72c0-.19,0-.39,0-.58s0-.39,0-.58a1.85,1.85,0,0,1,.91-1.72Zm-7.48,3.5a6.41,6.41,0,1,1-6.4-6.41A6.39,6.39,0,0,1,119.5,336.29Z" style="fill:#ebebeb"></path><path d="M95.18,233.09a30.47,30.47,0,1,0,30.47,30.47A30.46,30.46,0,0,0,95.18,233.09Zm0,44.69a14.23,14.23,0,1,1,14.23-14.22A14.22,14.22,0,0,1,95.18,277.78Z" style="fill:#ebebeb"></path><polygon points="101.04 234.35 89.32 234.35 89.97 226.06 100.39 226.06 101.04 234.35" style="fill:#ebebeb"></polygon><polygon points="78.73 238.3 70.45 246.58 65.04 240.26 72.41 232.89 78.73 238.3" style="fill:#ebebeb"></polygon><polygon points="65.76 256.86 65.76 268.58 57.46 267.93 57.46 257.51 65.76 256.86" style="fill:#ebebeb"></polygon><polygon points="69.7 279.16 77.99 287.45 71.67 292.86 64.3 285.49 69.7 279.16" style="fill:#ebebeb"></polygon><polygon points="88.27 292.14 99.98 292.14 99.34 300.44 88.92 300.44 88.27 292.14" style="fill:#ebebeb"></polygon><polygon points="110.57 288.19 118.86 279.91 124.26 286.23 116.89 293.6 110.57 288.19" style="fill:#ebebeb"></polygon><polygon points="123.55 269.63 123.55 257.91 131.84 258.56 131.84 268.99 123.55 269.63" style="fill:#ebebeb"></polygon><polygon points="119.6 247.33 111.32 239.04 117.64 233.64 125.01 241 119.6 247.33" style="fill:#ebebeb"></polygon><path d="M655.87,82.83a30.48,30.48,0,1,0,30.48,30.48A30.47,30.47,0,0,0,655.87,82.83Zm0,44.7a14.23,14.23,0,1,1,14.24-14.22A14.22,14.22,0,0,1,655.87,127.53Z" style="fill:#ebebeb"></path><polygon points="661.73 84.1 650.01 84.1 650.66 75.8 661.09 75.8 661.73 84.1" style="fill:#ebebeb"></polygon><polygon points="639.43 88.05 631.14 96.33 625.74 90.01 633.11 82.64 639.43 88.05" style="fill:#ebebeb"></polygon><polygon points="626.45 106.61 626.45 118.33 618.16 117.68 618.16 107.26 626.45 106.61" style="fill:#ebebeb"></polygon><polygon points="630.4 128.91 638.68 137.2 632.36 142.6 624.99 135.24 630.4 128.91" style="fill:#ebebeb"></polygon><polygon points="648.96 141.89 660.68 141.89 660.03 150.19 649.61 150.19 648.96 141.89" style="fill:#ebebeb"></polygon><polygon points="671.26 137.94 679.55 129.66 684.96 135.98 677.59 143.35 671.26 137.94" style="fill:#ebebeb"></polygon><polygon points="684.24 119.38 684.24 107.66 692.54 108.31 692.54 118.73 684.24 119.38" style="fill:#ebebeb"></polygon><polygon points="680.3 97.08 672.01 88.79 678.33 83.38 685.7 90.75 680.3 97.08" style="fill:#ebebeb"></polygon><polygon points="146.07 176.72 143.97 176.72 143.97 175.33 144.67 175.33 144.67 174.63 146.07 174.63 146.07 176.72" style="fill:#ebebeb"></polygon><path d="M141.15,176.72h-2.83v-1.39h2.83Zm-5.65,0h-2.82v-1.39h2.82Zm-5.65,0H127v-1.39h2.82Zm-5.65,0h-2.82v-1.39h2.82Zm-5.65,0h-2.82v-1.39h2.82Zm-5.64,0h-2.83v-1.39h2.83Zm-5.65,0h-2.83v-1.39h2.83Zm-5.65,0H98.78v-1.39h2.83Zm-5.65,0H93.14v-1.39H96Zm-5.65,0H87.49v-1.39h2.82Zm-5.65,0H81.84v-1.39h2.82Zm-5.65,0H76.19v-1.39H79Zm-5.64,0H70.54v-1.39h2.83Z" style="fill:#ebebeb"></path><polygon points="67.72 176.72 65.62 176.72 65.62 174.63 67.02 174.63 67.02 175.33 67.72 175.33 67.72 176.72" style="fill:#ebebeb"></polygon><path d="M67,171.81h-1.4V169H67Zm0-5.65h-1.4v-2.83H67Zm0-5.65h-1.4v-2.82H67Zm0-5.65h-1.4V152H67Zm0-5.65h-1.4v-2.82H67Zm0-5.65h-1.4v-2.82H67Zm0-5.64h-1.4v-2.83H67Zm0-5.65h-1.4v-2.83H67Zm0-5.65h-1.4v-2.83H67ZM67,121h-1.4v-2.82H67Zm0-5.65h-1.4V112.5H67Zm0-5.65h-1.4v-2.82H67ZM67,104h-1.4V101.2H67Z" style="fill:#ebebeb"></path><polygon points="67.02 98.38 65.62 98.38 65.62 96.28 67.72 96.28 67.72 97.68 67.02 97.68 67.02 98.38" style="fill:#ebebeb"></polygon><path d="M141.15,97.68h-2.83v-1.4h2.83Zm-5.65,0h-2.82v-1.4h2.82Zm-5.65,0H127v-1.4h2.82Zm-5.65,0h-2.82v-1.4h2.82Zm-5.65,0h-2.82v-1.4h2.82Zm-5.64,0h-2.83v-1.4h2.83Zm-5.65,0h-2.83v-1.4h2.83Zm-5.65,0H98.78v-1.4h2.83Zm-5.65,0H93.14v-1.4H96Zm-5.65,0H87.49v-1.4h2.82Zm-5.65,0H81.84v-1.4h2.82Zm-5.65,0H76.19v-1.4H79Zm-5.64,0H70.54v-1.4h2.83Z" style="fill:#ebebeb"></path><polygon points="146.07 98.38 144.67 98.38 144.67 97.68 143.97 97.68 143.97 96.28 146.07 96.28 146.07 98.38" style="fill:#ebebeb"></polygon><path d="M146.07,171.81h-1.4V169h1.4Zm0-5.65h-1.4v-2.83h1.4Zm0-5.65h-1.4v-2.82h1.4Zm0-5.65h-1.4V152h1.4Zm0-5.65h-1.4v-2.82h1.4Zm0-5.65h-1.4v-2.82h1.4Zm0-5.64h-1.4v-2.83h1.4Zm0-5.65h-1.4v-2.83h1.4Zm0-5.65h-1.4v-2.83h1.4Zm0-5.65h-1.4v-2.82h1.4Zm0-5.65h-1.4V112.5h1.4Zm0-5.65h-1.4v-2.82h1.4Zm0-5.65h-1.4V101.2h1.4Z" style="fill:#ebebeb"></path><rect x="61.4" y="171.1" width="9.85" height="9.85" style="fill:#fff"></rect><path d="M71.94,181.65H60.7V170.4H71.94Zm-9.85-1.4h8.46V171.8H62.09Z" style="fill:#ebebeb"></path><rect x="61.4" y="131.58" width="9.85" height="9.85" style="fill:#fff"></rect><path d="M71.94,142.13H60.7V130.88H71.94Zm-9.85-1.4h8.46v-8.45H62.09Z" style="fill:#ebebeb"></path><rect x="61.4" y="92.06" width="9.85" height="9.85" style="fill:#fff"></rect><path d="M71.94,102.6H60.7V91.36H71.94Zm-9.85-1.39h8.46V92.75H62.09Z" style="fill:#ebebeb"></path><rect x="140.44" y="171.1" width="9.85" height="9.85" style="fill:#fff"></rect><path d="M151,181.65H139.74V170.4H151Zm-9.85-1.4h8.46V171.8h-8.46Z" style="fill:#ebebeb"></path><rect x="140.44" y="131.58" width="9.85" height="9.85" style="fill:#fff"></rect><path d="M151,142.13H139.74V130.88H151Zm-9.85-1.4h8.46v-8.45h-8.46Z" style="fill:#ebebeb"></path><rect x="140.44" y="92.06" width="9.85" height="9.85" style="fill:#fff"></rect><path d="M151,102.6H139.74V91.36H151Zm-9.85-1.39h8.46V92.75h-8.46Z" style="fill:#ebebeb"></path><rect x="100.92" y="92.06" width="9.85" height="9.85" style="fill:#fff"></rect><path d="M111.47,102.6H100.22V91.36h11.25Zm-9.85-1.39h8.45V92.75h-8.45Z" style="fill:#ebebeb"></path><rect x="100.92" y="171.1" width="9.85" height="9.85" style="fill:#fff"></rect><path d="M111.47,181.65H100.22V170.4h11.25Zm-9.85-1.4h8.45V171.8h-8.45Z" style="fill:#ebebeb"></path><polygon points="684.38 298.13 682.28 298.13 682.28 296.74 682.98 296.74 682.98 296.04 684.38 296.04 684.38 298.13" style="fill:#ebebeb"></polygon><path d="M679.46,298.14h-2.83v-1.4h2.83Zm-5.65,0H671v-1.4h2.82Zm-5.65,0h-2.82v-1.4h2.82Zm-5.65,0h-2.82v-1.4h2.82Zm-5.65,0H654v-1.4h2.82Zm-5.64,0h-2.83v-1.4h2.83Zm-5.65,0h-2.83v-1.4h2.83Zm-5.65,0h-2.83v-1.4h2.83Zm-5.65,0h-2.82v-1.4h2.82Zm-5.65,0H625.8v-1.4h2.82Zm-5.65,0h-2.82v-1.4H623Zm-5.65,0H614.5v-1.4h2.82Zm-5.64,0h-2.83v-1.4h2.83Z" style="fill:#ebebeb"></path><polygon points="606.03 298.13 603.93 298.13 603.93 296.04 605.33 296.04 605.33 296.74 606.03 296.74 606.03 298.13" style="fill:#ebebeb"></polygon><path d="M605.33,293.22h-1.4v-2.83h1.4Zm0-5.65h-1.4v-2.83h1.4Zm0-5.65h-1.4V279.1h1.4Zm0-5.65h-1.4v-2.82h1.4Zm0-5.65h-1.4V267.8h1.4Zm0-5.65h-1.4v-2.82h1.4Zm0-5.64h-1.4V256.5h1.4Zm0-5.65h-1.4v-2.83h1.4Zm0-5.65h-1.4V245.2h1.4Zm0-5.65h-1.4v-2.82h1.4Zm0-5.65h-1.4v-2.82h1.4Zm0-5.65h-1.4v-2.82h1.4Zm0-5.64h-1.4v-2.83h1.4Z" style="fill:#ebebeb"></path><polygon points="605.33 219.79 603.93 219.79 603.93 217.69 606.03 217.69 606.03 219.09 605.33 219.09 605.33 219.79" style="fill:#ebebeb"></polygon><path d="M679.46,219.09h-2.83v-1.4h2.83Zm-5.65,0H671v-1.4h2.82Zm-5.65,0h-2.82v-1.4h2.82Zm-5.65,0h-2.82v-1.4h2.82Zm-5.65,0H654v-1.4h2.82Zm-5.64,0h-2.83v-1.4h2.83Zm-5.65,0h-2.83v-1.4h2.83Zm-5.65,0h-2.83v-1.4h2.83Zm-5.65,0h-2.82v-1.4h2.82Zm-5.65,0H625.8v-1.4h2.82Zm-5.65,0h-2.82v-1.4H623Zm-5.65,0H614.5v-1.4h2.82Zm-5.64,0h-2.83v-1.4h2.83Z" style="fill:#ebebeb"></path><polygon points="684.38 219.79 682.98 219.79 682.98 219.09 682.28 219.09 682.28 217.69 684.38 217.69 684.38 219.79" style="fill:#ebebeb"></polygon><path d="M684.38,293.22H683v-2.83h1.4Zm0-5.65H683v-2.83h1.4Zm0-5.65H683V279.1h1.4Zm0-5.65H683v-2.82h1.4Zm0-5.65H683V267.8h1.4Zm0-5.65H683v-2.82h1.4Zm0-5.64H683V256.5h1.4Zm0-5.65H683v-2.83h1.4Zm0-5.65H683v-2.82h1.4Zm0-5.65H683v-2.82h1.4Zm0-5.65H683v-2.82h1.4Zm0-5.65H683v-2.82h1.4Zm0-5.64H683v-2.83h1.4Z" style="fill:#ebebeb"></path><rect x="599.71" y="292.51" width="9.85" height="9.85" style="fill:#fff"></rect><path d="M610.25,303.06H599V291.81h11.24Zm-9.85-1.4h8.46v-8.45H600.4Z" style="fill:#ebebeb"></path><rect x="599.71" y="252.99" width="9.85" height="9.85" style="fill:#fff"></rect><path d="M610.25,263.54H599V252.29h11.24Zm-9.85-1.4h8.46v-8.45H600.4Z" style="fill:#ebebeb"></path><rect x="599.71" y="213.47" width="9.85" height="9.85" style="fill:#fff"></rect><path d="M610.25,224H599V212.77h11.24Zm-9.85-1.39h8.46v-8.46H600.4Z" style="fill:#ebebeb"></path><rect x="678.75" y="292.51" width="9.85" height="9.85" style="fill:#fff"></rect><path d="M689.3,303.06H678.05V291.81H689.3Zm-9.85-1.4h8.46v-8.45h-8.46Z" style="fill:#ebebeb"></path><rect x="678.75" y="252.99" width="9.85" height="9.85" style="fill:#fff"></rect><path d="M689.3,263.54H678.05V252.29H689.3Zm-9.85-1.4h8.46v-8.45h-8.46Z" style="fill:#ebebeb"></path><rect x="678.75" y="213.47" width="9.85" height="9.85" style="fill:#fff"></rect><path d="M689.3,224H678.05V212.77H689.3Zm-9.85-1.39h8.46v-8.46h-8.46Z" style="fill:#ebebeb"></path><rect x="639.23" y="213.47" width="9.85" height="9.85" style="fill:#fff"></rect><path d="M649.78,224H638.53V212.77h11.25Zm-9.85-1.39h8.45v-8.46h-8.45Z" style="fill:#ebebeb"></path><rect x="639.23" y="292.51" width="9.85" height="9.85" style="fill:#fff"></rect><path d="M649.78,303.06H638.53V291.81h11.25Zm-9.85-1.4h8.45v-8.45h-8.45Z" style="fill:#ebebeb"></path></g><g id="freepik--Table--inject-117"><polygon points="45.37 430.85 127.78 430.61 210.18 430.52 375 430.35 539.82 430.52 622.22 430.61 704.63 430.85 622.22 431.1 539.82 431.19 375 431.35 210.18 431.18 127.78 431.1 45.37 430.85" style="fill:#263238"></polygon></g><g id="freepik--Screen--inject-117"><rect x="117.87" y="66.39" width="514.26" height="325.34" style="fill:#fff"></rect><path d="M632.13,391.73,117.87,392h-.28v-.28L117.5,66.39V66h.37l514.26.15h.22v.22Zm0,0-.22-325.34.22.22-514.26.16.37-.38-.09,325.34-.28-.27Z" style="fill:#c7c7c7"></path><rect x="117.87" y="66.39" width="514.26" height="10.05" style="fill:#455a64"></rect><path d="M127.33,71.42a1.9,1.9,0,1,1-1.9-1.9A1.9,1.9,0,0,1,127.33,71.42Z" style="fill:#c7c7c7"></path><path d="M135.09,71.42a1.9,1.9,0,1,1-1.9-1.9A1.9,1.9,0,0,1,135.09,71.42Z" style="fill:#fff"></path><path d="M142.85,71.42a1.9,1.9,0,1,1-1.9-1.9A1.9,1.9,0,0,1,142.85,71.42Z" style="fill:#22577A"></path><polygon points="457.9 372.41 454.9 372.41 454.9 371.41 456.9 371.41 456.9 369.41 457.9 369.41 457.9 372.41" style="fill:#22577A"></polygon><path d="M449.91,372.41h-5v-1h5Zm-10,0h-5v-1h5Zm-10,0h-5v-1h5Zm-10,0h-5v-1h5Zm-10,0h-5v-1h5Zm-10,0h-5v-1h5Zm-10,0h-5v-1h5Zm-10,0h-5v-1h5Zm-10,0h-5v-1h5Zm-10,0h-5v-1h5Zm-10,0h-5v-1h5Zm-10,0h-5v-1h5Zm-10,0h-5v-1h5Zm-10,0h-5v-1h5Z" style="fill:#22577A"></path><polygon points="310.13 372.41 307.13 372.41 307.13 369.41 308.13 369.41 308.13 371.41 310.13 371.41 310.13 372.41" style="fill:#22577A"></polygon><path d="M308.13,364.3h-1v-5.1h1Zm0-10.2h-1V349h1Zm0-10.21h-1v-5.11h1Zm0-10.21h-1v-5.1h1Zm0-10.21h-1v-5.1h1Zm0-10.21h-1v-5.1h1Zm0-10.2h-1V298h1Zm0-10.21h-1v-5.11h1Zm0-10.21h-1v-5.1h1Zm0-10.21h-1v-5.1h1Z" style="fill:#22577A"></path><polygon points="308.13 262.23 307.13 262.23 307.13 259.23 310.13 259.23 310.13 260.23 308.13 260.23 308.13 262.23" style="fill:#22577A"></polygon><path d="M449.91,260.22h-5v-1h5Zm-10,0h-5v-1h5Zm-10,0h-5v-1h5Zm-10,0h-5v-1h5Zm-10,0h-5v-1h5Zm-10,0h-5v-1h5Zm-10,0h-5v-1h5Zm-10,0h-5v-1h5Zm-10,0h-5v-1h5Zm-10,0h-5v-1h5Zm-10,0h-5v-1h5Zm-10,0h-5v-1h5Zm-10,0h-5v-1h5Zm-10,0h-5v-1h5Z" style="fill:#22577A"></path><polygon points="457.9 262.23 456.9 262.23 456.9 260.23 454.9 260.23 454.9 259.23 457.9 259.23 457.9 262.23" style="fill:#22577A"></polygon><path d="M457.9,364.3h-1v-5.1h1Zm0-10.2h-1V349h1Zm0-10.21h-1v-5.11h1Zm0-10.21h-1v-5.1h1Zm0-10.21h-1v-5.1h1Zm0-10.21h-1v-5.1h1Zm0-10.2h-1V298h1Zm0-10.21h-1v-5.11h1Zm0-10.21h-1v-5.1h1Zm0-10.21h-1v-5.1h1Z" style="fill:#22577A"></path><rect x="305" y="103.52" width="153.14" height="101.06" transform="translate(763.15 308.1) rotate(180)" style="fill:#ebebeb"></rect><path d="M318.11,125.62a12,12,0,1,0,9.4-9.39A12,12,0,0,0,318.11,125.62Z" style="fill:#fff"></path><polygon points="355.53 182.8 458.15 182.8 406.84 128.42 355.53 182.8" style="fill:#c7c7c7"></polygon><polygon points="305 182.85 396.01 182.85 350.51 147.44 305 182.85" style="fill:#dbdbdb"></polygon><rect x="305" y="182.8" width="153.14" height="21.77" style="fill:#dbdbdb"></rect><rect x="143.53" y="260.03" width="149.74" height="112.18" style="fill:#fff"></rect><path d="M143.29,372.53v-.29l0-112.47h.25l150,0,0,112.76h-.25Zm.48-112.19,0,111.62,149.24,0,0-111.62Z" style="fill:#dbdbdb"></path><path d="M143.77,260.34c12.59,9,25.11,18.2,37.61,27.39l37.4,27.74,37.23,28,18.55,14.13L293,371.91l-18.85-13.62-18.76-13.77L218,316.78l-37.23-28C168.41,279.34,156.05,269.91,143.77,260.34Z" style="fill:#dbdbdb"></path><path d="M293,260.34c-12.28,9.57-24.64,19-37,28.4l-37.23,28-37.4,27.74-18.77,13.77-18.84,13.62,18.47-14.27,18.55-14.13,37.23-28,37.4-27.74C267.92,278.54,280.43,269.37,293,260.34Z" style="fill:#dbdbdb"></path><rect x="143.26" y="103.01" width="70.38" height="15.84" style="fill:#22577A"></rect><rect x="143.26" y="129.77" width="144.59" height="5.92" style="fill:#dbdbdb"></rect><rect x="143.26" y="142.8" width="144.59" height="5.92" style="fill:#dbdbdb"></rect><rect x="143.26" y="155.83" width="144.59" height="5.92" style="fill:#dbdbdb"></rect><rect x="143.26" y="168.85" width="144.59" height="5.92" style="fill:#dbdbdb"></rect><rect x="143.26" y="186.18" width="144.59" height="5.92" style="fill:#dbdbdb"></rect><rect x="143.26" y="199.21" width="144.59" height="5.92" style="fill:#dbdbdb"></rect><rect x="143.26" y="212.24" width="314.64" height="5.92" style="fill:#dbdbdb"></rect><rect x="143.26" y="225.27" width="314.64" height="5.92" style="fill:#dbdbdb"></rect><rect x="143.26" y="238.29" width="314.64" height="5.92" style="fill:#dbdbdb"></rect><rect x="478.01" y="103.01" width="128.71" height="16.13" style="fill:#22577A"></rect><rect x="478.36" y="119.27" width="128.02" height="252.84" style="fill:#fff"></rect><path d="M606.74,372.53H478V118.85H606.74Zm-128-.84H606v-252H478.72Z" style="fill:#dbdbdb"></path><polygon points="478.69 372.26 478.03 371.95 606.05 119.11 606.71 119.42 478.69 372.26" style="fill:#dbdbdb"></polygon><polygon points="606.05 372.26 478.03 119.42 478.69 119.11 606.71 371.95 606.05 372.26" style="fill:#dbdbdb"></polygon></g><g id="freepik--Plant--inject-117"><path d="M643.91,316.61c-6.68,0-20.19-5.25-17.92-9.67s9.24,1.26,9.53,1.43c-.2-.33-4.71-9.14-.7-10.67s8.08,2.72,9.09,7.61c1-4.89,5-9.18,9.09-7.61s-.5,10.34-.69,10.67c.29-.17,7.29-5.74,9.52-1.43S650.59,316.61,643.91,316.61Z" style="fill:#455a64"></path><path d="M677.64,352.63a82.57,82.57,0,0,1-1.7,10.95c-1.59,7.18-4.2,14.14-7.93,18.8a66.34,66.34,0,0,1-48.34,0c-8-9.95-10.81-30.43-9.68-40.95,2.06-19,13.42-26.29,23.28-28.89,0,0,0,0,0,0a41.92,41.92,0,0,1,10.56-1.35c9.67,0,31,3.49,33.85,30.25A59.94,59.94,0,0,1,677.64,352.63Z" style="fill:#22577A"></path><path d="M644.54,311.18c.27,6.31.43,12.63.54,18.94s.15,12.64.18,19-.07,12.63-.25,18.95-.32,12.66-1.32,18.91l.24-2.36.13-2.36c.11-1.57.11-3.16.16-4.73.08-3.16.12-6.31.13-9.47,0-6.31.09-12.63.06-18.94l0-18.95C644.45,323.81,644.46,317.5,644.54,311.18Z" style="fill:#fff"></path><path d="M640.44,311.31a76.21,76.21,0,0,0-2.26,9.17c-.63,3.08-1.09,6.2-1.49,9.32a179.73,179.73,0,0,0-1.3,18.83l0,4.72c0,1.57.06,3.15.08,4.72,0,3.15.28,6.29.43,9.43.06,1.58.22,3.15.36,4.71l.42,4.71,1.07,9.4c-.52-3.11-1-6.23-1.49-9.35l-.54-4.7c-.18-1.57-.37-3.14-.47-4.72-.25-3.15-.49-6.3-.55-9.46,0-1.58-.14-3.16-.12-4.74v-4.74a163.38,163.38,0,0,1,1.5-18.89A92,92,0,0,1,640.44,311.31Z" style="fill:#fff"></path><path d="M635,312.09a39.54,39.54,0,0,0-4.79,8.34c-.31.74-.66,1.47-.95,2.22l-.8,2.27-.41,1.13c-.12.38-.22.77-.33,1.16l-.64,2.31a74.62,74.62,0,0,0-2.18,19.06l.1,4.81.47,4.79.23,2.39c.12.8.28,1.59.41,2.38l.81,4.75a21.59,21.59,0,0,0,.51,2.36l.57,2.34,1.14,4.69,2.86,9.23c-1.11-3-2.18-6.07-3.26-9.11l-1.26-4.68-.63-2.34a21.33,21.33,0,0,1-.57-2.36l-.9-4.76c-.14-.8-.31-1.59-.43-2.39l-.25-2.41-.51-4.83-.15-4.86a72.53,72.53,0,0,1,2.41-19.23l.71-2.32c.12-.39.23-.78.35-1.16l.44-1.14.87-2.26c.31-.75.67-1.48,1-2.21A37.36,37.36,0,0,1,635,312.09Z" style="fill:#fff"></path><path d="M630.93,313.18a35.77,35.77,0,0,0-6.53,7.26,43,43,0,0,0-4.66,8.56,49.71,49.71,0,0,0-3.67,19c-.06,1.63.07,3.25.13,4.88s.25,3.24.54,4.85l.37,2.41.49,2.39c.16.8.33,1.6.55,2.39l.59,2.37c.41,1.58.93,3.13,1.39,4.69l1.64,4.62,1.82,4.55,2,4.49a96.36,96.36,0,0,1-7.48-18.17c-.42-1.59-.93-3.16-1.23-4.78l-.51-2.41-.4-2.44c-.3-1.62-.39-3.27-.59-4.9s-.21-3.29-.16-4.94a49.25,49.25,0,0,1,3.92-19.27,42.43,42.43,0,0,1,4.93-8.54,38.07,38.07,0,0,1,3.18-3.76A27.77,27.77,0,0,1,630.93,313.18Z" style="fill:#fff"></path><path d="M648.39,311.35a92.12,92.12,0,0,1,4.4,18.41,163.72,163.72,0,0,1,1.5,18.9v4.74c0,1.58-.08,3.16-.12,4.74-.06,3.16-.3,6.31-.55,9.46-.1,1.57-.29,3.14-.47,4.71l-.54,4.71c-.46,3.12-1,6.24-1.49,9.35l1.07-9.4.42-4.71c.14-1.57.3-3.14.36-4.71.15-3.15.4-6.29.43-9.44,0-1.57.11-3.14.08-4.72l0-4.72a179.35,179.35,0,0,0-1.3-18.82c-.4-3.12-.86-6.24-1.49-9.33A76.68,76.68,0,0,0,648.39,311.35Z" style="fill:#fff"></path><path d="M653.87,312.14A37.06,37.06,0,0,1,659,320.3c.34.74.7,1.46,1,2.21l.87,2.27.43,1.13c.13.39.24.78.36,1.16l.71,2.33a72.11,72.11,0,0,1,2.4,19.23l-.14,4.85-.51,4.83-.25,2.41c-.13.8-.29,1.6-.43,2.39l-.9,4.77a21.16,21.16,0,0,1-.57,2.35l-.63,2.34-1.26,4.68c-1.08,3-2.15,6.09-3.26,9.12l2.86-9.24,1.14-4.69.57-2.34a23.59,23.59,0,0,0,.51-2.36l.81-4.75c.13-.79.29-1.58.41-2.37l.23-2.4.47-4.79.1-4.81a74.49,74.49,0,0,0-2.18-19.05l-.64-2.32c-.11-.39-.21-.78-.33-1.16l-.41-1.13-.8-2.27c-.29-.75-.64-1.47-1-2.21A39.05,39.05,0,0,0,653.87,312.14Z" style="fill:#fff"></path><path d="M657.89,313.23a26.5,26.5,0,0,1,3.69,3.25,39.26,39.26,0,0,1,3.18,3.76,42.7,42.7,0,0,1,4.93,8.54,49.25,49.25,0,0,1,3.92,19.27c0,1.65-.09,3.3-.16,4.94s-.29,3.29-.59,4.91l-.4,2.43-.51,2.42c-.3,1.61-.81,3.18-1.23,4.77a96.72,96.72,0,0,1-7.48,18.18l2-4.49,1.82-4.56L668.7,372c.46-1.57,1-3.12,1.39-4.7l.59-2.37c.22-.79.39-1.58.55-2.38l.49-2.39.37-2.42c.29-1.6.36-3.23.54-4.85s.19-3.25.13-4.87a50,50,0,0,0-3.67-19,43.31,43.31,0,0,0-4.66-8.56A35.77,35.77,0,0,0,657.89,313.23Z" style="fill:#fff"></path><path d="M642.29,333.76a42,42,0,0,1,2.79,4.21h-.51c.47-.85,1-1.69,1.49-2.51q.39-.63.81-1.23c.28-.4.55-.81.85-1.2-.18.46-.39.9-.59,1.35s-.42.88-.65,1.32c-.44.86-.91,1.72-1.4,2.56l-.26.45-.25-.44A44.3,44.3,0,0,1,642.29,333.76Z" style="fill:#fff"></path><path d="M644.61,331.57a18.33,18.33,0,0,1,.21,6.55,18.34,18.34,0,0,1-.21-6.55Z" style="fill:#fff"></path><path d="M664.17,311.38a44.81,44.81,0,0,1,.05,5.05l-.43-.27c.86-.46,1.74-.89,2.62-1.3.45-.21.89-.41,1.35-.6s.9-.37,1.37-.53c-.4.28-.82.54-1.23.81l-1.26.75c-.85.48-1.71.95-2.58,1.39l-.46.23,0-.51A42.54,42.54,0,0,1,664.17,311.38Z" style="fill:#fff"></path><path d="M667.31,310.81a15.8,15.8,0,0,1-1.44,2.95,16.16,16.16,0,0,1-1.94,2.66,17.87,17.87,0,0,1,3.38-5.61Z" style="fill:#fff"></path><path d="M658.93,326.49a44.41,44.41,0,0,1,2.29,4.51l-.51-.06c.57-.79,1.17-1.56,1.78-2.32.3-.38.62-.76.93-1.13s.65-.74,1-1.09c-.24.44-.5.85-.75,1.27s-.52.83-.79,1.23c-.55.81-1.11,1.61-1.7,2.39l-.3.41-.2-.46A43.49,43.49,0,0,1,658.93,326.49Z" style="fill:#fff"></path><path d="M661.49,324.59a18,18,0,0,1-.54,6.53,15.74,15.74,0,0,1,0-3.29A16.43,16.43,0,0,1,661.49,324.59Z" style="fill:#fff"></path><path d="M649.44,376.41a43.35,43.35,0,0,1,2.79,4.22h-.51c.47-.85,1-1.69,1.49-2.52q.39-.62.81-1.23c.28-.4.55-.8.85-1.19-.18.46-.39.9-.59,1.35s-.42.88-.65,1.31c-.44.87-.91,1.73-1.4,2.57l-.26.44-.25-.44A43.29,43.29,0,0,1,649.44,376.41Z" style="fill:#fff"></path><path d="M651.76,374.22a18.34,18.34,0,0,1,.21,6.55,18.33,18.33,0,0,1-.21-6.55Z" style="fill:#fff"></path><path d="M627.21,318.83a42.75,42.75,0,0,1,1.45,4.84l-.49-.15c.7-.68,1.43-1.33,2.16-2l1.12-.94c.39-.3.77-.61,1.17-.89-.3.38-.63.74-1,1.11s-.67.72-1,1.08c-.68.7-1.37,1.38-2.08,2.05l-.38.35-.11-.5A43.79,43.79,0,0,1,627.21,318.83Z" style="fill:#fff"></path><path d="M630.06,317.4a17.63,17.63,0,0,1-1.69,6.33,18.35,18.35,0,0,1,1.69-6.33Z" style="fill:#fff"></path><path d="M679.12,337a42,42,0,0,1-.53,5l-.39-.32c.91-.36,1.83-.68,2.76-1l1.4-.44c.47-.12.94-.27,1.42-.37-.43.24-.88.44-1.32.66s-.88.41-1.33.6c-.9.39-1.81.75-2.72,1.09l-.48.17L678,342A42.36,42.36,0,0,1,679.12,337Z" style="fill:#fff"></path><path d="M682.31,336.82a16.29,16.29,0,0,1-1.77,2.77A15.43,15.43,0,0,1,678.3,342a18.27,18.27,0,0,1,4-5.18Z" style="fill:#fff"></path><path d="M632.66,355.61a41.55,41.55,0,0,1,2.84,4.18H635c.47-.86,1-1.7,1.47-2.53.26-.42.52-.83.79-1.24s.54-.81.84-1.2c-.17.46-.38.9-.57,1.35s-.42.88-.64,1.32c-.43.87-.89,1.74-1.37,2.59l-.26.44-.25-.44A43.27,43.27,0,0,1,632.66,355.61Z" style="fill:#fff"></path><path d="M635,353.4a18.3,18.3,0,0,1,.29,6.54,18.3,18.3,0,0,1-.29-6.54Z" style="fill:#fff"></path><path d="M615.21,366.78a44.6,44.6,0,0,1,4.2,2.82l-.47.2c.11-1,.25-1.94.41-2.9q.12-.72.27-1.44c.11-.48.2-1,.33-1.44,0,.5,0,1,0,1.48s0,1-.09,1.46c-.08,1-.18,1.94-.31,2.91l-.07.51-.4-.31A42.74,42.74,0,0,1,615.21,366.78Z" style="fill:#fff"></path><path d="M616.51,363.87a18.31,18.31,0,0,1,2.72,6A15.54,15.54,0,0,1,617.6,367,16.61,16.61,0,0,1,616.51,363.87Z" style="fill:#fff"></path><path d="M610.88,322.43a42.36,42.36,0,0,1,4.65,2l-.42.29c-.07-1-.12-1.95-.14-2.93,0-.49,0-1,0-1.46s0-1,.06-1.47c.1.48.16,1,.25,1.45s.13,1,.18,1.45c.11,1,.19,1.94.24,2.92l0,.51-.45-.23A42.37,42.37,0,0,1,610.88,322.43Z" style="fill:#fff"></path><path d="M611.61,319.32a16.85,16.85,0,0,1,2.14,2.5,16.41,16.41,0,0,1,1.65,2.85,16.85,16.85,0,0,1-2.14-2.5A16.41,16.41,0,0,1,611.61,319.32Z" style="fill:#fff"></path><path d="M670.46,354.48a43.4,43.4,0,0,1,2.38,4.46l-.51,0c.56-.81,1.13-1.59,1.73-2.37.3-.38.6-.77.91-1.14s.63-.75,1-1.11c-.22.44-.48.86-.72,1.28s-.5.84-.77,1.25c-.52.82-1.07,1.63-1.64,2.43l-.3.41-.2-.46A42.62,42.62,0,0,1,670.46,354.48Z" style="fill:#fff"></path><path d="M673,352.53a18.3,18.3,0,0,1-.41,6.54,15.78,15.78,0,0,1-.09-3.29A16.39,16.39,0,0,1,673,352.53Z" style="fill:#fff"></path><polygon points="615.43 382.85 672.84 382.85 667.06 430.85 621.21 430.85 615.43 382.85" style="fill:#455a64"></polygon><polygon points="615.43 382.85 616.73 393.68 671.85 391.03 672.84 382.85 615.43 382.85" style="fill:#263238"></polygon><rect x="611.82" y="376.79" width="64.62" height="8.58" style="fill:#455a64"></rect></g><g id="freepik--Character--inject-117"><path d="M187,174.83c23.84,6.52,34.73,64.87,15.22,80.43s-36.89,4.19-47.41,15.25c-4.57,4.8-5.53-.34-10.53-7.66s-23-46.47-15.84-64.21S164.74,168.75,187,174.83Z" style="fill:#263238"></path><path d="M156.25,265.7c13.68-2.37,28.18-.31,41.18-6.07,6.45-2.86,11.58-7.34,13.71-14.22,1.92-6.24,2-13.17,1.46-19.62a69.27,69.27,0,0,0-6.34-23.61c-.08-.15.15-.28.23-.13,6.1,12.43,9,27.54,6,41.25A22.38,22.38,0,0,1,202.32,258c-5.8,3.64-12.61,5.28-19.33,6.1-8.85,1.07-17.79.91-26.64,2C156.1,266.11,156,265.74,156.25,265.7Z" style="fill:#263238"></path><path d="M172.35,307.79c27.27,42.19,80,101.41,99.79,93.33,16.64-6.8,38.2-64.81,40.79-82.67,1.18-8.11-53.4-33.8-54.69-25.13-1.36,9.19-4.62,41.41-5.86,40.82-3.88-1.86-22.43-16.47-59.33-40.75C172.49,279.86,154.3,279.86,172.35,307.79Z" style="fill:#d3766a"></path><path d="M255.45,360.21c-2-4.31-6.33-16.29-2.75-26.72a.1.1,0,0,1,.2,0c-1.57,8.83,1.17,22.31,2.73,26.62C255.67,360.27,255.5,360.32,255.45,360.21Z" style="fill:#263238"></path><path d="M312.93,318.45c-3.07,6.08-41.54-2.28-45.86-7.78-3-3.82-8.1-18-19.54-25.65-9.6-6.44-24.6-14.9-21.33-20.19,4.75-7.73,25,.69,36.32,6.23-.4-6.84-.1-12.77,1.34-16.16,4.79-11.25,57.75,3.73,61.1,15.7C328.2,282.15,316,312.37,312.93,318.45Z" style="fill:#d3766a"></path><path d="M205.23,366l25.25-51.18s-34.37-24.47-54.83-33.26c-11.47-4.92-15.44,3.91-11.65,14.53C177.27,333.21,205.23,366,205.23,366Z" style="fill:#22577A"></path><path d="M205.23,366l25.25-51.18s-34.37-24.47-54.83-33.26c-11.47-4.92-15.44,3.91-11.65,14.53C177.27,333.21,205.23,366,205.23,366Z" style="fill:#22577A"></path><path d="M230.48,314.78l-7.15,14.49-.27.55-3.88,7.87-.25.5-9.12,18.49-.37.75L205.23,366a272.28,272.28,0,0,1-21.37-29.86c-.11-.19-.23-.38-.35-.57-3.48-5.62-7-11.81-10.34-18.36l-.24-.48A184,184,0,0,1,164,296.05a24.89,24.89,0,0,1-1.1-4.13c0-.19-.06-.37-.09-.55-1.22-8.31,3.12-14,12.84-9.85,1.94.83,4,1.81,6.14,2.88l.58.3c3.63,1.84,7.49,4,11.37,6.25l.51.29c9.16,5.37,18.45,11.42,25.33,16l.46.31c2.18,1.47,4.11,2.79,5.69,3.87l.46.33C228.89,313.65,230.48,314.78,230.48,314.78Z" style="fill:#22577A"></path><path d="M178.68,286.61c-5.11,2.19-10.69,3.15-15.78,5.31,0-.19-.06-.37-.09-.55,4.37-1.84,9.12-2.85,13.59-4.48a30.94,30.94,0,0,0,5.39-2.49l.58.3A28,28,0,0,1,178.68,286.61Zm15.57,4.63-.51-.29c-6.85,8-10.37,19.46-19.72,25.13-.36.22-.72.42-1.09.61l.24.48c5-2.59,8.84-7.3,11.87-12S190.64,295.46,194.25,291.24Zm25.33,16c-.16.34-.33.67-.5,1a55.2,55.2,0,0,1-15,17.57,49.17,49.17,0,0,1-19.47,9.46l-1.15.23c.12.19.24.38.35.57,1.42-.28,2.82-.63,4.19-1a51.88,51.88,0,0,0,18.3-10.28A54,54,0,0,0,220,307.59Zm-24.75,34.51c-2.07,2.6-1,5.54,1.49,7.39,2.9,2.16,6.72,2,9.82,3.73a6.48,6.48,0,0,1,3.3,4.52l.37-.75a6.86,6.86,0,0,0-1.56-2.77c-2.39-2.57-6.14-2.69-9.25-3.83a7.83,7.83,0,0,1-4.44-3.66c-1.05-2.18.26-4.06,1.82-5.55a19.08,19.08,0,0,1,20.34-3.69c.75.31,1.49.65,2.21,1l.25-.5a23.22,23.22,0,0,0-6.21-2.21C206.54,334.24,199,336.57,194.83,341.79Zm27.8-25.23q1.71-2.37,3.5-4.69l.06-.08-.46-.33-1.66,2.19c-2.08,2.78-4.6,5.7-5.42,9.16-.67,2.86.5,5.74,3.38,6.73a8.33,8.33,0,0,0,1,.28l.27-.55a5,5,0,0,1-3.51-2c-1.21-1.73-.89-3.94-.15-5.78A23.54,23.54,0,0,1,222.63,316.56Z" style="fill:#fff"></path><path d="M224.75,326.38,205.22,366s-27.95-32.75-41.22-69.9c-1.42-4-1.75-7.69-1-10.54Z" style="opacity:0.1"></path><path d="M221.54,312.59c-4.54,7.56-16.25,28.39-22.09,42.93,0,.09.28.26.33.18,6.68-11.36,18.36-34.93,22.23-42.85C222.08,312.7,221.62,312.45,221.54,312.59Z" style="fill:#263238"></path><path d="M71.81,430.82l134.56-.36-8.49-52.8s12.15-14.74,9.85-30.72c-2.52-17.52-34.1-61.92-36.76-64.42-10.69-10-22-11.83-32.88-8.21h0C87.86,305.87,71.81,430.82,71.81,430.82Z" style="fill:#22577A"></path><path d="M207.92,353.58c0,.23,0,.45-.07.68a42.37,42.37,0,0,1-4,13.75l-.39.77a50.38,50.38,0,0,1-5.54,8.88l.19,1.19.09.54,8.21,51.07-21,.06h-.61l-13.5,0h-.67l-8.74,0H161l-15,0h-.49l-26.51.07h-.48l-27.25.07h-.62l-18.85.05s1.76-13.7,5.94-33.18l.15-.7c1-4.7,2.17-9.74,3.47-15h0c0-.17.08-.34.13-.52,2.47-9.91,5.47-20.58,9.07-31.28l.19-.58c1.57-4.65,3.26-9.31,5.06-13.91l.21-.53A215.56,215.56,0,0,1,109.34,307l.38-.66c2.29-3.94,4.7-7.69,7.23-11.21l.28-.38c6.18-8.49,13.1-15.57,20.83-20.43h0a30.22,30.22,0,0,1,17.73-.71l.68.19A36.5,36.5,0,0,1,171,282.52a56.27,56.27,0,0,1,3.84,4.92l.35.49c2.73,3.76,6.46,9.14,10.43,15.23l.38.57c5,7.75,10.42,16.58,14.59,24.66.09.18.18.36.28.54,1.22,2.4,2.34,4.73,3.31,6.94.08.18.15.36.23.53a45,45,0,0,1,3.35,10.54A30.26,30.26,0,0,1,207.92,353.58Z" style="fill:#22577A"></path><path d="M119.92,396.86c4.76,5.27,2.86,13.46,1.3,19.57-1.15,4.49-2.5,9.5-2.21,14.26h-.48a33.19,33.19,0,0,1,.94-9.43c1.6-7,5.27-15.88,1.07-22.71-2.19-3.56-6.35-4.59-10.28-3.84a18,18,0,0,0-9.2,5.08c-5.8,5.78-7.64,14.11-8.39,22a41.08,41.08,0,0,1-1.39,9h-.62c1.44-4.12,1.38-9.07,2-13.32,1.1-7.2,3.66-14.49,9.41-19.29C106.79,394.25,115.15,391.61,119.92,396.86Zm36.49,25.75a57.81,57.81,0,0,1-3.85-24.53,92.81,92.81,0,0,1,1.75-11.72c1.2-6.43,2.4-14-2-19.58a12.74,12.74,0,0,0-16.18-3c-4.91,2.92-7.29,8.8-7.63,14.28-.45,7.14,2.86,13.83,6.38,19.83,4.13,7.06,8.92,13.94,10.62,22.08a25.67,25.67,0,0,1,0,10.69H146a23.67,23.67,0,0,0,.52-6.69c-.5-8-4.57-15.2-8.63-21.93-3.94-6.53-8.5-13.55-8.91-21.4-.31-6,1.81-12.88,7.1-16.24,6.22-4,14.72-1.06,17.58,5.63s.35,14.73-.85,21.62a58.57,58.57,0,0,0,.82,23.91,39.83,39.83,0,0,0,4,10.9,17.66,17.66,0,0,0,3.34,4.16h.82A18.65,18.65,0,0,1,156.41,422.61Zm23.41-32.86a8.48,8.48,0,0,0-8.11-1,9.8,9.8,0,0,0-5.15,6.28c-2.33,7.5,2.64,14.45,5,21.23,1.37,3.85,2.22,8.38.38,12.23a8,8,0,0,1-1.41,2.07h.67a6.76,6.76,0,0,0,.59-.79c2-3.05,1.95-7,1.17-10.42-1.73-7.59-8-14.75-6.33-22.9.65-3.21,2.57-6.41,5.82-7.49,3.51-1.17,7,.62,9.39,3.22,6.07,6.73,2.93,16.07,1.61,23.95-.78,4.62-1,10.09,1.25,14.4h.61c-3.57-6.78-1.21-14.61,0-21.64.66-3.81,1.12-7.95-.07-11.71A14.1,14.1,0,0,0,179.82,389.75Zm-67.56-30.56c-7.67.39-11.93,7.45-16,13a24.71,24.71,0,0,1-7.67,7.15,15.55,15.55,0,0,1-7.07,2.13c-.05.18-.09.35-.13.52,4.93,0,9.9-3.19,13-6.68,4.93-5.53,8.21-13.67,16.2-15.37a8.65,8.65,0,0,1,9.62,4.26c2,3.57,1.54,7.8-.22,11.36-2.84,5.75-8.4,9.55-14.15,12-9,3.84-19.17,5.1-27.95,9.41l-.15.7C88,392.53,99.91,391.7,110,386.09c5.26-2.93,10.23-7.59,11.69-13.64a11.66,11.66,0,0,0-1.55-9.39A8.91,8.91,0,0,0,112.26,359.19Zm25.82-37.57a12.65,12.65,0,0,0-9.64-.77c-7.61,2.1-12.38,8.85-19,12.73A16.45,16.45,0,0,1,98.82,336a9.62,9.62,0,0,1-2.78-.89l-.21.53a9.44,9.44,0,0,0,1.18.49,14.56,14.56,0,0,0,9.71-.62c7.22-2.79,11.78-9.67,18.7-13,3.45-1.65,7.66-2.51,11.31-1a9.84,9.84,0,0,1,5.73,7.26c1.53,7.19-3.27,13.29-9.53,16.22-7.73,3.61-16.48,2.64-24.75,2.56a60.14,60.14,0,0,0-17.41,2l-.19.58c7.85-2.37,16.07-2,24.19-1.89,7.47.15,15.44-.24,21.76-4.71,5-3.51,7.92-9.41,6.29-15.5A10.42,10.42,0,0,0,138.08,321.62Zm2.46-28.2c6-4.94,9.8-11.91,14.55-17.93.45-.57.92-1.14,1.41-1.7l-.68-.19c-3.83,4.49-6.9,9.62-10.65,14.17-4.6,5.59-10.83,10.38-18.37,10.55a13.2,13.2,0,0,1-9.3-3.32l-.27-.26-.28.38a12.66,12.66,0,0,0,5.37,3.17C128.63,300.15,135.65,297.45,140.54,293.42Zm10.8,8.81a12.74,12.74,0,0,0,.95,9.34c3.2,6.3,10.84,8.83,17.44,7,6.77-1.91,11.62-7.66,15.31-13.34.31-.48.62-1,.93-1.47l-.38-.57c-3.11,5-6.48,9.83-11.57,12.92a16.62,16.62,0,0,1-10.89,2.41,13.75,13.75,0,0,1-9.48-5.67,12.38,12.38,0,0,1-1.82-10.32,15.17,15.17,0,0,1,6.3-8c5.13-3.52,11.23-4.63,17-6.57l-.35-.49c-6.28,2.09-12.94,3.31-18.23,7.53A15,15,0,0,0,151.34,302.23Zm49.22,26.16a47.1,47.1,0,0,1-15.9,6.91c-6.82,1.49-14.31,1.27-20.58-2.07s-10-9.65-13.92-15.44a43.81,43.81,0,0,0-6.39-7.84,23.94,23.94,0,0,0-8.37-5c-6.49-2.26-13.67-1.84-20.25-.25a53.76,53.76,0,0,0-5.43,1.62l-.38.66a55.38,55.38,0,0,1,9.59-2.46c7-1.14,14.55-.68,20.73,3.07s9.56,10.09,13.49,15.8a38.34,38.34,0,0,0,6.48,7.56,24,24,0,0,0,8.46,4.61c6.47,2,13.55,1.42,20-.51a48.46,48.46,0,0,0,12.79-6.13C200.74,328.75,200.65,328.57,200.56,328.39Zm-6.4,39.69a25.69,25.69,0,0,1-9.75-6.21c-5.54-5.3-10-12-17.06-15.41a15.75,15.75,0,0,0-9.9-1.56c-2.9.61-5.77,2.52-6.27,5.63-.56,3.42,1.53,7,3.31,9.75a35.57,35.57,0,0,0,6.59,7.58,36.59,36.59,0,0,0,18.76,8.49c4.19.61,8.44.77,12.62,1.51a32.6,32.6,0,0,1,5.7,1.53l-.09-.54-.87-.31a56.55,56.55,0,0,0-12-2.06A52.64,52.64,0,0,1,173,374.2a35.44,35.44,0,0,1-9.45-5.06,36,36,0,0,1-7.39-7.45,33.88,33.88,0,0,1-2.73-4.36,12.1,12.1,0,0,1-1.8-6.09c.22-4.21,4.64-6.09,8.32-6.12,4,0,7.86,1.76,11.08,4.1,6.35,4.6,10.45,11.62,16.83,16.2,4.21,3,10.52,5.28,15.61,3.36l.39-.77A13.87,13.87,0,0,1,194.16,368.08Zm4.84-18a7.83,7.83,0,0,1-4.44-3.66c-1.05-2.18.26-4.06,1.82-5.55a18.26,18.26,0,0,1,8-4.47c-.08-.17-.15-.35-.23-.53a17.87,17.87,0,0,0-9.32,5.92c-2.07,2.6-1,5.54,1.49,7.39,2.9,2.16,6.72,2,9.82,3.73a6.68,6.68,0,0,1,1.71,1.35c0-.23.05-.45.07-.68C205.53,351.33,202,351.17,199,350.08Z" style="fill:#fff"></path><path d="M173.58,373.62a126.59,126.59,0,0,0-18.65,3.07c-3,.78-6,1.69-9,2.67-1.49.49-3,.93-4.48,1.36a20.14,20.14,0,0,1-4.8.9.12.12,0,0,0,0,.23,34.05,34.05,0,0,0,4.63-.09,33.25,33.25,0,0,0,4.41-.83c3.09-.76,6.14-1.66,9.22-2.45,6.21-1.6,12.42-3.2,18.74-4.34C174,374.09,173.88,373.59,173.58,373.62Z" style="fill:#263238"></path><path d="M189.1,379.19a135.11,135.11,0,0,0-15.58-.75c-2.6,0-5.18.21-7.77.46-1.24.12-2.48.26-3.71.42s-2.69.53-4,.68c-.14,0-.14.24,0,.22,1.28-.1,2.59,0,3.88,0l3.89-.1c2.59-.06,5.18-.1,7.78-.18,5.19-.18,10.36-.3,15.56-.3C189.39,379.61,189.37,379.21,189.1,379.19Z" style="fill:#263238"></path><path d="M145.76,283c.46,2.67,12,20.51,24.05,20.66,3.93.05,5.13-21.38,5.13-21.38l.45-1.57,6.29-21.86-25-18.27L153,238.13s-1.32,6.1-2.9,13.71c-.07.35-.15.7-.22,1.08s-.2.83-.28,1.23c-.25,1.14-.5,2.3-.72,3.46-.17.88-.35,1.73-.5,2.66s-.32,1.84-.5,2.78C146.37,272.26,145.58,281.86,145.76,283Z" style="fill:#d3766a"></path><path d="M150.11,251.84a45.66,45.66,0,0,0,25.28,28.86l6.29-21.86-25-18.27L153,238.13S151.69,244.23,150.11,251.84Z" style="fill:#263238"></path><path d="M144.72,238c.34,22.28-23.2,48.46-13.74,89.08,4.25,18.25,36,37.23,33.56,72.88-.62,9.24,47-43.38,3.71-112.28C154.67,266,144.72,238,144.72,238Z" style="fill:#263238"></path><path d="M168.1,292.1c15.88,22.41,28.79,52.82,18.18,80.12-3.1,8-8.33,14.61-13.65,21.21-.09.12-.26-.05-.17-.17,4.64-5.9,9.27-11.95,12.22-18.91A58.38,58.38,0,0,0,189,353.48c.43-14.19-3.67-28-9.79-40.71-3.41-7.07-7.56-13.67-11.59-20.4A.27.27,0,0,1,168.1,292.1Z" style="fill:#263238"></path><path d="M133.81,273.72c3.75-8.67,8.09-17.23,10-26.56a.09.09,0,0,1,.17,0c-2.71,15.22-11.5,28.44-15,43.47-3.24,14-3.07,28.89,1.9,42.47a63.91,63.91,0,0,0,11.68,19.74c.17.19-.1.47-.28.29-9.06-9.29-14.37-22-16-34.76C124.22,303,127.69,287.83,133.81,273.72Z" style="fill:#263238"></path><path d="M150.26,253.23a67.56,67.56,0,0,0,9.25,18.53c3.93,5.63,8.35,10.89,12.35,16.47,8.39,11.72,15.16,24.9,17.46,39.26a62,62,0,0,1-1,24.6,0,0,0,1,1-.06,0c3.5-14.84.26-30.81-6-44.44a115.75,115.75,0,0,0-10.77-18.37c-3.91-5.51-8.17-10.78-12-16.36-4.08-6-8-12.41-9.61-19.54A.24.24,0,0,1,150.26,253.23Z" style="fill:#263238"></path><rect x="137.81" y="250.94" width="17.07" height="9.72" rx="3.27" transform="translate(29.63 -14.81) rotate(6.44)" style="fill:#22577A"></rect><path d="M211.73,227.67c-2.26,39.87-26.4,43-35,42.52-7.81-.46-34.32-3-36.19-42.87s17.38-51.44,35.28-51.35S214,187.8,211.73,227.67Z" style="fill:#d3766a"></path><path d="M206.4,221.46a27.06,27.06,0,0,1-2.5-1.16,4.46,4.46,0,0,1-2.33-1.67,1.42,1.42,0,0,1,.39-1.69,3.53,3.53,0,0,1,3.57,0,5.18,5.18,0,0,1,2.75,2.52A1.51,1.51,0,0,1,206.4,221.46Z" style="fill:#263238"></path><path d="M179.18,218.91c.94.07,1.82,0,2.76,0a4.45,4.45,0,0,0,2.8-.59,1.4,1.4,0,0,0,.33-1.7,3.53,3.53,0,0,0-3.26-1.47,5.2,5.2,0,0,0-3.53,1.19A1.52,1.52,0,0,0,179.18,218.91Z" style="fill:#263238"></path><path d="M198.87,229.57c0-.1.2.15.18.26-.37,2.69-.34,5.84,2,7,.07,0,.05.17,0,.15C198.08,236.24,198.09,232.06,198.87,229.57Z" style="fill:#263238"></path><path d="M201.58,227c4.39.13,3.8,8.89-.26,8.77S197.91,226.89,201.58,227Z" style="fill:#263238"></path><path d="M203.37,227.7c.66.51,1.29,1.4,2.11,1.51s1.73-.77,2.4-1.64c.07-.09.14,0,.13.1-.06,1.68-.73,3.39-2.36,3.6s-2.47-1.31-2.76-3C202.84,228,203.11,227.5,203.37,227.7Z" style="fill:#263238"></path><path d="M183.09,227.55c0-.1-.23.1-.24.21-.35,2.7-1.2,5.73-3.77,6.23-.08,0-.09.15,0,.15C182.11,234.2,183.2,230.17,183.09,227.55Z" style="fill:#263238"></path><path d="M181.14,224.37c-4.26-1-6,7.58-2,8.53S184.72,225.22,181.14,224.37Z" style="fill:#263238"></path><path d="M179.23,224.57c-.77.32-1.61,1-2.43.91s-1.46-1.2-1.89-2.21c0-.11-.12-.05-.15.06-.37,1.64-.17,3.46,1.34,4.09s2.73-.62,3.45-2.18C179.68,225,179.54,224.44,179.23,224.57Z" style="fill:#263238"></path><path d="M179.51,249.88c.47.78.87,1.8,1.8,2.13a7.05,7.05,0,0,0,3,.09.1.1,0,0,1,.08.17,3.7,3.7,0,0,1-3.72.54,2.91,2.91,0,0,1-1.44-2.88C179.23,249.77,179.44,249.77,179.51,249.88Z" style="fill:#263238"></path><path d="M192.63,242.55s-.27,4.09-.66,6c0,.18-.5.16-1.15.07,0,0,0,0-.07,0a9.13,9.13,0,0,1-8-5.12.2.2,0,0,1,.34-.2,13.68,13.68,0,0,0,7.66,4c.24-.49.23-7,.53-7a16.59,16.59,0,0,1,4.06,1.84c.82-8.5.26-17.07,1.2-25.52a.26.26,0,0,1,.51,0c1.22,8.93.5,18.74-.12,27.55C196.89,245.23,193.32,243,192.63,242.55Z" style="fill:#263238"></path><path d="M144.4,231.93c8.41,0,9.12-19.19,9.12-19.19s14.25-2.41,20.3-12c0,0-4.07,8.29-9.7,11.63-1,.57,28-1.85,31.07-23.91,0,0,3.87,21.9,17,26.59.62.23-1.59-19.91-5.74-24.64a42.25,42.25,0,0,0-8.14-7.26,41.37,41.37,0,0,0-30.15-8.36c-17.77,2.28-29.69,20.7-31.17,28.32C134.05,218.13,140.41,231.91,144.4,231.93Z" style="fill:#263238"></path><path d="M165,212.91c15.75-.42,28.45-10.25,30-26.31a.35.35,0,0,1,.7,0c1.85,16.34-16,28-30.89,26.56C164.52,213.15,164.66,212.92,165,212.91Z" style="fill:#263238"></path><path d="M144.45,231c8.6-4.23,10.1-12.78,10.89-21.47,0-.25.47-.26.46,0,0,8.54-1.74,19-11.06,22.18A.39.39,0,0,1,144.45,231Z" style="fill:#263238"></path><path d="M195.39,185.18a.08.08,0,0,1,.16,0c1.76,9,1.89,24.26,13.4,26.74a.24.24,0,0,1-.07.48C197.62,211,194,194.48,195.39,185.18Z" style="fill:#263238"></path><path d="M146.71,230.74s-6.84-13.58-12.89-11.31-2.13,21.08,4.09,24.48a6.75,6.75,0,0,0,9.47-2.3Z" style="fill:#d3766a"></path><path d="M135.08,224.79a.09.09,0,0,0-.06.17c4.34,2.54,6.15,7.16,7.21,11.83-1.13-1.9-2.86-3.1-5.38-1.8-.13.07,0,.27.09.26a4.17,4.17,0,0,1,4.32,2.09,20,20,0,0,1,1.64,4c.15.45.93.33.84-.16a.5.5,0,0,1,0-.12C144.68,235.17,141.3,226.3,135.08,224.79Z" style="fill:#263238"></path><path d="M120.23,308.1c-1.6,56.63,12.75,137.6,31.3,143.82,20.67,6.92,30.27-58.4,27.08-59.29-2.7-.76-22.66-52.67-37.4-90.17S120.63,294.09,120.23,308.1Z" style="fill:#d3766a"></path><path d="M117.54,376.69,166,346.6s-16.22-38.94-29-57.22c-7.13-10.24-12.88-5.74-15.27,5.27C113.41,333.21,117.54,376.69,117.54,376.69Z" style="fill:#22577A"></path><path d="M120.09,363.06a11.66,11.66,0,0,1,1.55,9.39,15,15,0,0,1-.68,2.12l-.73.45a12.07,12.07,0,0,0,0-10.86,8.6,8.6,0,0,0-3.55-3.5c0-.19,0-.38,0-.57A8.9,8.9,0,0,1,120.09,363.06Zm11.78,4.73,1.16-.72a13.47,13.47,0,0,1,3.06-2.71,11.19,11.19,0,0,1,3.81-1.55h0l1.05-.66a12,12,0,0,0-4.82,1.59A13.67,13.67,0,0,0,131.87,367.79Zm6.21-46.17a12.65,12.65,0,0,0-9.64-.77c-4.35,1.2-7.78,3.93-11.15,6.76,0,.24,0,.48-.05.72a38.42,38.42,0,0,1,8.18-5.77c3.45-1.65,7.66-2.51,11.31-1a9.84,9.84,0,0,1,5.73,7.26c1.53,7.19-3.27,13.29-9.53,16.22-5.16,2.41-10.78,2.78-16.4,2.73v.51c7,0,14.17-.61,20-4.73,5-3.51,7.92-9.41,6.29-15.5A10.42,10.42,0,0,0,138.08,321.62ZM158,328.51c-3-3.19-5.4-7.05-7.87-10.72a43.81,43.81,0,0,0-6.39-7.84,23.94,23.94,0,0,0-8.37-5,32.83,32.83,0,0,0-15.35-1.17c0,.2-.07.4-.1.6,6.7-.95,13.83-.36,19.71,3.21,6.11,3.7,9.56,10.09,13.49,15.8a40.61,40.61,0,0,0,5.66,6.82C158.56,329.66,158.29,329.09,158,328.51Zm-18.39-35.25a21.37,21.37,0,0,1-12.84,5.06,14.15,14.15,0,0,1-5.56-1c0,.18-.07.35-.11.53a11.14,11.14,0,0,0,1.19.42c6.09,1.79,12.83-.65,17.69-4.45C139.88,293.65,139.76,293.45,139.64,293.26Zm26,52.48a14.89,14.89,0,0,0-8.21-.84c-2.9.61-5.77,2.52-6.27,5.63a9.23,9.23,0,0,0,.68,4.86l.47-.29a9.2,9.2,0,0,1-.75-3.86c.22-4.21,4.64-6.09,8.32-6.12a15.86,15.86,0,0,1,6,1.23Z" style="fill:#fff"></path><path d="M159.59,340c-7.84,4-28.8,15.51-41.44,24.76-.08.05.1.36.18.32,11.68-6.11,34.06-19.94,41.53-24.62C160,340.4,159.74,339.94,159.59,340Z" style="fill:#263238"></path><path d="M160.11,350.27q2.8-2.07,5.69-4l-.17.53c-2.86-5.66-5.53-11.4-8.07-17.2s-5-11.66-7.11-17.65c3.05,5.57,5.81,11.28,8.47,17s5.16,11.58,7.5,17.48l.14.36-.31.18C164.23,348.1,162.18,349.21,160.11,350.27Z" style="fill:#263238"></path><path d="M155.8,323.4a17.11,17.11,0,0,1-1-3.92,25.59,25.59,0,0,1-.23-4,7.24,7.24,0,0,1,.8,1.88,14,14,0,0,1,.38,6.08Z" style="fill:#263238"></path><path d="M124.06,372.62c-1.24.55-5.33,3.21-6.25,3.77,0-1.67-.24-3.36-.34-5q-.18-2.91-.29-5.83c-.14-3.89-.26-7.78-.28-11.67q0-11.79.75-23.57c.15-2.19.25-4.38.39-6.56s.37-4.52.51-6.78a.14.14,0,0,0-.27,0c-.87,3.85-1.45,7.79-2,11.69v.06l-.27-2.32c-.18-1.72-.27-3.45-.29-5.18,0-.1-.14-.09-.15,0a39.69,39.69,0,0,0,.05,7c.06.52.13,1,.22,1.55l.18,1c-.37,3.24-.61,6.51-.81,9.76a193.66,193.66,0,0,0,.08,23.85c.13,2.2,1.23,14.72,1.53,14.47,1.09-.91,6.46-4.86,7.45-5.82C124.41,372.83,124.25,372.54,124.06,372.62Z" style="fill:#263238"></path><rect x="248.59" y="255.05" width="149.74" height="112.18" style="fill:#22577A"></rect><g style="opacity:0.7000000000000001"><rect x="248.59" y="255.05" width="149.74" height="112.18" style="fill:#fff"></rect></g><path d="M248.83,255.36c12.6,9,25.11,18.2,37.61,27.39l37.41,27.74,37.23,28,18.55,14.13,18.47,14.27L379.25,353.3l-18.76-13.76L323.08,311.8l-37.22-28C273.48,274.35,261.11,264.93,248.83,255.36Z" style="fill:#22577A"></path><path d="M398.1,255.36c-12.28,9.57-24.65,19-37,28.4l-37.22,28-37.41,27.74L267.68,353.3l-18.85,13.63,18.47-14.27,18.55-14.13,37.23-28,37.41-27.74C373,273.56,385.5,264.39,398.1,255.36Z" style="fill:#22577A"></path><path d="M153.39,452.34c15.63-.06,38.41-3.46,82.87-46.63,6.15-6-24.32-60.73-31.22-54.69-8.69,7.61-40.75,39-42.81,41.61C144.9,414.51,142.78,452.37,153.39,452.34Z" style="fill:#d3766a"></path><path d="M191.09,364.24s9-23.66,17.62-34.63c11.51-14.68,27.48-22.62,34.38-25.54,14.4-6.1,53.42-10.89,56.76.11,3,9.95-37.11,12.84-37.11,12.84s40.44-9.7,41.88,3-45.35,13.36-45.35,13.36,41.77-9,41.19,4.26c-.44,10-42.77,13.06-42.77,13.06s35.95-7.51,35.95,2.83c0,11.44-38.92,16.68-38.92,16.68-4.44,26.29-17.32,37-27.38,43.52C224.9,415.27,191.09,364.24,191.09,364.24Z" style="fill:#d3766a"></path><path d="M248.54,319.48c4.71-1.31,9.47-2.67,14.28-3.56s9.65-1.61,14.52-2.05c11.94-1.06,19.59.13,19.11.11-11.36-.53-28.63,2.38-33.44,3.27s-9.64,1.53-14.44,2.41C248.45,319.68,248.43,319.51,248.54,319.48Z" style="fill:#263238"></path><path d="M251.43,336.9c6.08-1.41,12.07-3,18.22-4.18s12-1.69,18.21-2.4c.48-.06.35.21-.13.29-6.14,1-11.75,2.32-17.89,3.36s-12.32,1.83-18.39,3.08C251.36,337.07,251.34,336.92,251.43,336.9Z" style="fill:#263238"></path><path d="M251.22,352.3c9.19-2.64,18.85-3.57,28.36-4.27.47,0,.27.3-.21.37-9.46,1.24-16.88,2.14-28.06,4.22C251.14,352.65,251,352.36,251.22,352.3Z" style="fill:#263238"></path><path d="M151.91,413.39c1.85-6.11,8.12-22.3,20.72-31.47.14-.11.29.06.16.18-9.25,8.74-18.38,25.53-20.65,31.35C152.08,413.61,151.86,413.55,151.91,413.39Z" style="fill:#263238"></path><path d="M263.7,277.2c5.56,3.07,6-5.24,6-5.24S272,284.08,278.91,285c6.72.89,6.89-9.17,6.91-9.89.12.64,2.49,11.72,9.58,11.95,7.38.24,5.81-9.89,5.71-10.55.31.57,4.5,8,9.93,6.95,9.33-1.8-.88-21.1,1.69-28.35,0,0,10.35.45,10.73.45,0,0-6.89-16.05-16.86-19a6.63,6.63,0,0,0-7.73,3.06s-2.35-6.32-7.93-6.68c-2.87-.17-5.7,4.25-5.7,4.25s-2.09-5-7.07-5c-4,0-6.2,4.42-6.2,4.42s-4.23-3.85-8.29-2.55C255.46,236.72,251.79,270.61,263.7,277.2Z" style="fill:#d3766a"></path><path d="M271.51,237.32a.09.09,0,0,0-.17,0c-3.93,10.85-4.92,24-1.72,35.13.11.37.75.36.71-.07C269.23,260.2,269.22,249.34,271.51,237.32Z" style="fill:#263238"></path><path d="M285.19,237.06c0-.13-.19-.17-.23,0-4,11.21-4.7,26,.5,38.45.18.43.77.63.6.13C283.23,267.07,283.07,247.88,285.19,237.06Z" style="fill:#263238"></path><path d="M301.77,277.28c-4.53-12.11-4.72-24.45-3.1-37.16,0-.16-.21-.18-.27,0-2.49,6-2.68,14.2-2.29,20.6a34.12,34.12,0,0,0,5.24,16.76C301.48,277.64,301.87,277.54,301.77,277.28Z" style="fill:#263238"></path><path d="M269.56,272.13c.13.44.63-.23.77.2.59,1.83,5.09,12.54,9.21,12.14,3.31-.32,5.16-5,5.17-7.06l0-5.21,1.79,4.9a21.1,21.1,0,0,0,3.34,6c1.42,1.76,3.31,3.13,5.35,3.2a4.36,4.36,0,0,0,4.61-3,13.17,13.17,0,0,0,.28-6.59L299,270.69l3,5.36a19.67,19.67,0,0,0,3,4.12,8.25,8.25,0,0,0,4.05,2.5,3.93,3.93,0,0,0,3.9-1.37,8.73,8.73,0,0,0,1.18-4.71,67,67,0,0,0-1.07-10.65c-.26-1.79-.52-3.59-.7-5.4a12.93,12.93,0,0,1,.31-5.4,13.93,13.93,0,0,0,.19,5.34c.31,1.77.7,3.53,1.1,5.29a57.8,57.8,0,0,1,1.66,10.82,10.11,10.11,0,0,1-1.24,5.7,5.56,5.56,0,0,1-5.68,2.24,10,10,0,0,1-5.11-3A21.87,21.87,0,0,1,300.2,277l1.92-.71a15.22,15.22,0,0,1-.26,7.8,6.29,6.29,0,0,1-2.64,3.35,7.15,7.15,0,0,1-4.12,1c-2.9-.17-5.22-2.06-6.78-4.05a23.31,23.31,0,0,1-3.57-6.71l1.82-.3c-.1,2.63-1.6,8.07-6.66,9.23C273.08,287.11,270,274.48,269.56,272.13Z" style="fill:#263238"></path><path d="M269.69,272a12.72,12.72,0,0,1-1.51,3.59,3,3,0,0,1-2.61,1.47,6.09,6.09,0,0,1-3.08-1.48c-1-.81-2-1.71-3-2.68a10.26,10.26,0,0,0,2,3.68,6,6,0,0,0,4,2.25,4.21,4.21,0,0,0,2.43-.7,4.38,4.38,0,0,0,1.48-1.88A6.79,6.79,0,0,0,269.69,272Z" style="fill:#263238"></path></g></svg>