<?xml version="1.0" standalone="no"?>
<!DOCTYPE svg PUBLIC "-//W3C//DTD SVG 20010904//EN"
 "http://www.w3.org/TR/2001/REC-SVG-20010904/DTD/svg10.dtd">
<svg version="1.0" xmlns="http://www.w3.org/2000/svg"
 width="891.000000pt" height="1643.000000pt" viewBox="0 0 891.000000 1643.000000"
 preserveAspectRatio="xMidYMid meet">
<metadata>
Created by potrace 1.16, written by Peter Selinger 2001-2019
</metadata>
<g transform="translate(0.000000,1643.000000) scale(0.100000,-0.100000)"
fill="#000000" stroke="none">
<path d="M4210 16410 c-10 -14 -26 -20 -52 -20 -21 0 -38 -4 -38 -10 0 -5 -20
-10 -44 -10 -25 0 -48 -4 -51 -10 -3 -5 -28 -10 -55 -10 -30 0 -54 -6 -64 -15
-8 -9 -33 -15 -60 -15 -25 0 -47 -4 -50 -9 -3 -5 -31 -12 -61 -16 -30 -3 -55
-11 -55 -16 0 -5 -7 -9 -15 -9 -8 0 -15 -4 -15 -9 0 -5 -21 -12 -46 -16 -26
-3 -55 -14 -65 -24 -10 -9 -35 -23 -56 -30 -21 -7 -59 -26 -84 -42 -25 -16
-51 -29 -58 -29 -7 0 -22 -11 -33 -25 -11 -14 -27 -25 -36 -25 -10 0 -26 -11
-36 -25 -10 -14 -25 -25 -33 -25 -8 0 -31 -16 -51 -35 -20 -19 -43 -35 -50
-35 -7 0 -28 -16 -46 -35 -19 -19 -39 -35 -45 -35 -5 0 -29 -18 -51 -40 -22
-22 -46 -40 -52 -40 -6 0 -8 -3 -5 -6 4 -4 -3 -16 -16 -26 -12 -11 -52 -48
-89 -84 -37 -35 -72 -64 -79 -64 -6 0 -9 -9 -6 -20 4 -15 -5 -31 -29 -54 -19
-18 -34 -39 -34 -47 0 -8 -9 -21 -20 -29 -11 -8 -20 -22 -20 -31 0 -9 -11 -25
-25 -35 -14 -10 -25 -29 -25 -41 0 -13 -5 -22 -12 -21 -7 2 -14 -8 -16 -22 -2
-13 -13 -32 -23 -41 -10 -9 -19 -21 -19 -28 0 -6 -4 -11 -10 -11 -5 0 -12 -11
-16 -25 -3 -14 -10 -25 -15 -25 -5 0 -9 -11 -9 -24 0 -13 -7 -27 -16 -30 -10
-4 -14 -14 -11 -25 3 -12 -1 -22 -9 -25 -8 -3 -14 -19 -14 -36 0 -16 -4 -30
-10 -30 -5 0 -10 -16 -10 -35 0 -24 -5 -35 -15 -35 -10 0 -15 -11 -15 -35 0
-19 -5 -35 -11 -35 -6 0 -9 -16 -7 -37 2 -23 -3 -45 -11 -55 -8 -9 -16 -25
-17 -35 -2 -10 -8 -19 -13 -21 -6 -2 -11 -19 -11 -38 0 -27 -5 -37 -25 -46
-15 -7 -24 -18 -23 -27 4 -16 -34 -61 -50 -61 -5 0 -22 -11 -38 -25 -16 -14
-40 -25 -54 -25 -15 0 -30 -4 -35 -9 -6 -5 -109 -11 -229 -13 -164 -2 -220 -6
-224 -15 -2 -9 -29 -13 -87 -13 -46 0 -86 -4 -89 -9 -3 -4 -31 -11 -61 -15
-34 -4 -64 -14 -77 -25 -11 -11 -42 -22 -68 -26 -28 -4 -51 -13 -54 -21 -3 -8
-12 -14 -21 -14 -9 0 -35 -9 -57 -20 -23 -11 -46 -20 -51 -20 -4 0 -23 -11
-41 -25 -18 -14 -40 -25 -49 -25 -10 0 -17 -4 -17 -10 0 -5 -11 -12 -25 -16
-14 -3 -25 -10 -25 -15 0 -5 -7 -9 -16 -9 -9 0 -27 -11 -40 -25 -13 -14 -28
-25 -34 -25 -6 0 -21 -9 -33 -20 -39 -36 -82 -70 -89 -70 -12 0 -278 -269
-278 -282 0 -6 -18 -29 -40 -49 -22 -21 -40 -44 -40 -51 0 -7 -9 -20 -20 -28
-11 -8 -20 -21 -20 -30 -1 -19 -24 -50 -39 -50 -6 0 -11 -11 -11 -25 0 -16 -6
-25 -16 -25 -10 0 -14 -6 -10 -15 3 -8 0 -20 -7 -28 -19 -20 -37 -55 -37 -71
0 -8 -7 -16 -15 -20 -9 -3 -15 -18 -15 -36 0 -16 -4 -30 -10 -30 -5 0 -10 -11
-10 -24 0 -13 -7 -27 -16 -30 -12 -4 -15 -15 -12 -36 3 -20 0 -30 -9 -30 -8 0
-13 -12 -13 -34 0 -19 -4 -38 -10 -41 -5 -3 -10 -22 -10 -41 0 -19 -4 -34 -10
-34 -7 0 -10 -148 -10 -425 0 -277 3 -425 10 -425 6 0 10 -18 10 -40 0 -22 5
-40 10 -40 6 0 10 -16 10 -35 0 -22 5 -35 13 -35 9 0 12 -10 9 -30 -3 -21 0
-32 12 -36 9 -3 16 -17 16 -30 0 -13 5 -24 10 -24 6 0 10 -13 10 -29 0 -16 6
-31 15 -35 8 -3 15 -14 15 -25 0 -11 9 -25 20 -31 12 -6 20 -21 20 -35 0 -14
6 -25 13 -25 7 0 27 -16 44 -35 17 -19 36 -35 42 -35 6 0 11 -4 11 -10 0 -5 8
-10 18 -10 9 0 26 -7 36 -15 26 -20 110 -20 130 0 8 8 22 15 30 15 9 0 16 5
16 10 0 6 7 10 15 10 9 0 15 9 15 25 0 14 4 25 9 25 5 0 12 11 15 25 4 14 11
25 16 25 6 0 10 38 10 90 0 71 -3 92 -15 96 -10 4 -15 20 -15 49 0 24 -4 47
-10 50 -5 3 -10 17 -10 31 0 13 -4 24 -10 24 -5 0 -10 13 -10 29 0 16 -7 36
-15 45 -8 8 -15 30 -15 50 0 19 -4 38 -10 41 -6 4 -10 133 -10 355 0 222 4
351 10 355 6 3 10 21 10 40 0 20 6 35 15 39 8 3 15 16 15 29 0 26 21 77 33 77
4 0 7 11 7 24 0 13 6 26 14 29 7 3 16 19 19 36 4 18 13 31 22 31 9 0 15 9 15
25 0 16 6 25 15 25 9 0 15 9 15 25 0 15 13 37 32 56 18 17 33 36 33 42 0 21
235 247 256 247 11 0 17 5 14 10 -3 6 0 10 8 10 8 0 17 7 21 15 3 8 12 15 21
15 8 0 15 5 15 10 0 6 7 10 15 10 8 0 15 5 15 10 0 6 9 10 19 10 11 0 26 7 35
15 8 8 22 15 30 15 9 0 16 5 16 10 0 6 8 10 19 10 10 0 24 6 31 14 6 8 17 13
24 10 8 -3 20 2 29 10 9 9 25 16 36 16 11 0 23 5 26 10 3 6 19 10 35 10 16 0
35 7 44 15 8 8 31 15 50 15 20 0 36 5 36 10 0 6 108 10 305 10 197 0 305 -4
305 -10 0 -5 21 -10 46 -10 25 0 43 -4 40 -9 -7 -11 18 -21 55 -21 16 0 29 -4
29 -10 0 -5 7 -10 16 -10 8 0 22 -7 31 -15 8 -8 18 -13 23 -10 4 3 13 -2 20
-10 7 -8 21 -15 31 -15 11 0 19 -4 19 -10 0 -5 9 -10 19 -10 10 0 21 -7 25
-15 3 -8 14 -15 26 -15 11 0 25 -9 32 -20 7 -11 20 -20 28 -20 16 0 78 -53
232 -200 44 -41 91 -85 106 -97 15 -13 47 -41 72 -63 25 -22 51 -40 57 -40 7
0 13 -4 13 -10 0 -5 13 -10 29 -10 16 0 31 -5 33 -11 2 -6 27 -14 56 -17 42
-4 53 -1 58 12 3 9 14 16 24 16 10 0 39 21 64 46 l46 46 0 99 c0 81 -3 99 -15
99 -10 0 -15 11 -15 35 0 19 -4 35 -10 35 -5 0 -10 8 -10 19 0 10 -11 26 -25
35 -14 9 -25 23 -25 31 0 21 -237 253 -278 272 -18 9 -30 18 -28 21 7 6 -39
42 -54 42 -16 0 -110 92 -110 108 0 7 -11 24 -25 38 -13 13 -22 30 -19 37 3 8
-2 20 -11 27 -22 18 -22 215 1 237 10 10 14 27 12 45 -3 19 0 28 9 28 8 0 13
13 13 35 0 19 5 35 10 35 6 0 10 11 10 24 0 13 7 29 15 36 8 7 15 23 15 36 0
13 5 24 10 24 6 0 10 16 10 35 0 19 5 35 10 35 6 0 10 11 10 25 0 16 6 25 15
25 9 0 15 9 15 25 0 14 3 25 8 25 4 0 16 16 26 35 11 19 23 35 28 35 4 0 8 7
8 15 0 9 15 30 33 47 17 18 31 38 29 45 -1 7 24 39 58 73 33 33 60 66 60 74 0
8 9 17 19 21 11 3 23 15 26 25 3 10 15 22 25 25 10 3 21 14 24 23 3 10 20 26
38 36 38 23 73 52 106 89 14 15 31 27 39 27 7 0 13 5 13 10 0 6 5 10 10 10 6
0 21 11 34 25 13 14 29 25 36 25 7 0 23 11 36 25 13 14 32 25 44 25 11 0 20 5
20 10 0 6 8 10 19 10 10 0 24 7 31 15 7 8 19 15 26 15 8 0 14 5 14 10 0 6 11
10 25 10 14 0 25 5 25 10 0 6 9 10 20 10 11 0 23 7 26 15 4 9 19 15 40 15 19
0 34 4 34 9 0 5 28 12 62 16 43 5 67 13 75 25 9 13 33 21 78 25 36 4 68 11 71
16 3 5 26 9 51 9 27 0 53 6 63 15 24 22 351 23 385 1 13 -9 45 -16 70 -16 25
0 45 -4 45 -9 0 -5 29 -12 64 -16 40 -4 71 -13 83 -25 11 -9 42 -21 70 -25 30
-4 60 -15 73 -27 18 -17 24 -18 31 -7 6 9 9 10 9 2 0 -6 10 -14 23 -18 47 -13
135 -54 142 -65 3 -6 15 -10 26 -10 10 0 19 -4 19 -10 0 -5 9 -10 21 -10 11 0
18 -4 15 -9 -3 -4 15 -17 39 -27 25 -10 45 -22 45 -26 0 -4 7 -8 15 -8 9 0 18
-7 21 -15 4 -8 15 -15 25 -15 10 0 19 -4 19 -10 0 -5 5 -10 11 -10 7 0 22 -11
35 -25 13 -14 29 -25 36 -25 7 0 41 -28 75 -63 35 -34 68 -67 75 -74 7 -7 18
-18 24 -25 6 -7 21 -19 32 -27 12 -8 19 -18 16 -23 -3 -4 0 -8 5 -8 6 0 11 -8
11 -17 0 -10 18 -34 40 -53 24 -21 40 -44 40 -57 0 -14 6 -23 15 -23 9 0 18
-13 22 -31 3 -17 12 -33 19 -36 8 -3 14 -11 14 -19 0 -8 5 -14 10 -14 6 0 10
-6 10 -14 0 -8 6 -16 14 -19 8 -3 12 -14 10 -24 -4 -14 2 -23 20 -31 18 -8 26
-19 26 -37 0 -14 5 -25 11 -25 13 0 39 -25 39 -38 0 -12 35 -52 46 -52 5 0 22
-12 37 -26 27 -24 35 -26 120 -26 58 0 93 4 95 11 2 6 8 11 13 11 9 0 33 24
67 65 13 16 24 64 29 132 4 48 1 64 -9 68 -9 4 -13 17 -10 40 3 21 0 35 -7 35
-6 0 -11 14 -11 30 0 20 -5 30 -15 30 -9 0 -15 9 -15 25 0 14 -4 25 -10 25 -5
0 -10 11 -10 24 0 15 -7 27 -19 31 -10 3 -22 17 -25 31 -4 14 -13 27 -20 30
-8 3 -12 13 -9 23 3 11 -5 24 -21 35 -14 9 -26 22 -26 29 0 7 -28 43 -62 79
-35 37 -74 81 -88 98 -14 18 -31 37 -38 43 -7 7 -35 35 -62 62 -27 28 -54 55
-60 60 -6 6 -28 27 -50 48 -21 20 -43 37 -49 37 -6 0 -11 5 -11 10 0 6 -6 10
-13 10 -7 0 -34 23 -60 50 -26 28 -53 50 -60 50 -7 0 -21 11 -31 25 -11 14
-29 25 -42 25 -13 0 -24 4 -24 9 0 5 -16 16 -35 25 -19 9 -35 21 -35 25 0 5
-12 11 -27 14 -16 3 -38 15 -50 27 -13 11 -36 23 -53 26 -16 4 -30 10 -30 15
0 5 -6 9 -13 9 -7 0 -22 8 -33 19 -12 10 -41 22 -65 26 -24 4 -51 16 -60 26
-10 12 -36 21 -72 25 -32 4 -57 11 -57 15 0 5 -21 9 -46 9 -27 0 -51 6 -60 15
-10 9 -34 15 -65 15 -27 0 -49 5 -49 10 0 6 -22 10 -50 10 -27 0 -50 5 -50 10
0 6 -18 10 -41 10 -32 0 -42 4 -46 20 -5 19 -14 20 -262 20 -245 0 -257 -1
-271 -20z"/>
<path d="M6705 14250 c-3 -5 -35 -10 -70 -10 -43 0 -68 -5 -79 -15 -8 -8 -31
-15 -50 -15 -20 0 -36 -4 -36 -10 0 -5 -11 -10 -24 -10 -13 0 -26 -7 -30 -15
-3 -9 -18 -15 -36 -15 -16 0 -30 -4 -30 -10 0 -5 -11 -10 -25 -10 -14 0 -25
-4 -25 -10 0 -5 -9 -10 -20 -10 -11 0 -23 -7 -26 -15 -4 -8 -14 -15 -24 -15
-11 0 -22 -4 -25 -10 -3 -5 -14 -10 -25 -10 -10 0 -20 -7 -24 -15 -3 -8 -15
-15 -26 -15 -11 0 -20 -4 -20 -9 0 -5 -15 -16 -34 -25 -35 -16 -136 -111 -136
-127 0 -5 -4 -9 -10 -9 -5 0 -10 -11 -10 -24 0 -14 -7 -31 -15 -40 -9 -9 -15
-34 -15 -66 0 -36 4 -52 15 -56 8 -4 15 -14 15 -23 0 -10 15 -28 33 -41 17
-13 38 -32 45 -42 11 -15 28 -18 112 -18 91 0 100 2 114 22 9 12 16 17 16 10
0 -18 25 -14 44 7 10 10 34 22 54 26 20 4 44 16 53 26 10 11 20 20 23 20 19
-1 66 13 66 20 0 5 8 9 18 9 10 0 27 7 38 15 10 8 33 15 51 15 17 0 35 5 38
10 3 6 35 10 70 10 47 0 64 4 69 15 4 12 27 15 115 15 62 0 112 4 116 10 3 6
24 10 46 10 21 0 39 -4 39 -10 0 -6 43 -10 109 -10 84 0 111 -3 121 -15 9 -10
32 -15 76 -15 36 0 64 -4 64 -10 0 -5 15 -10 34 -10 18 0 39 -7 47 -16 7 -8
21 -13 31 -11 10 3 25 -1 32 -9 8 -8 21 -14 30 -14 8 0 18 -5 21 -11 4 -6 13
-8 20 -5 8 3 17 -4 20 -15 4 -10 15 -19 25 -19 24 0 81 -30 98 -52 7 -10 19
-18 27 -18 7 0 27 -13 45 -30 18 -16 37 -30 44 -30 14 0 196 -185 196 -200 0
-6 11 -22 25 -36 14 -14 25 -34 25 -45 0 -13 8 -23 21 -26 12 -4 22 -17 26
-34 3 -16 9 -29 14 -29 5 0 9 -8 9 -19 0 -10 6 -24 14 -31 8 -6 12 -18 9 -26
-3 -8 1 -14 11 -14 10 0 16 -9 16 -25 0 -14 5 -25 10 -25 6 0 10 -11 10 -24 0
-13 7 -29 15 -36 8 -7 15 -23 15 -36 0 -13 5 -24 10 -24 6 0 10 -9 10 -19 0
-11 5 -23 10 -26 6 -3 10 -17 10 -30 0 -13 7 -30 15 -39 9 -9 15 -33 15 -60 0
-25 5 -46 10 -46 6 0 10 -80 10 -220 0 -140 -4 -220 -10 -220 -5 0 -10 -22
-10 -50 0 -39 -3 -50 -16 -50 -12 0 -15 -7 -12 -31 3 -20 0 -33 -9 -36 -7 -3
-13 -16 -13 -29 0 -13 -4 -24 -10 -24 -5 0 -10 -13 -10 -30 0 -16 -4 -30 -9
-30 -11 0 -41 -56 -41 -77 0 -7 -7 -13 -16 -13 -12 0 -15 -7 -12 -25 4 -17 1
-25 -8 -25 -8 0 -14 -11 -14 -25 0 -14 -4 -25 -10 -25 -5 0 -10 -8 -10 -17 -1
-22 -23 -53 -39 -53 -6 0 -11 -10 -11 -23 0 -22 -54 -80 -65 -69 -3 3 -5 -4
-5 -16 0 -27 -61 -92 -87 -92 -11 0 -26 -11 -33 -25 -9 -18 -22 -25 -42 -25
-15 0 -28 -4 -28 -10 0 -6 -37 -10 -90 -10 -53 0 -90 4 -90 10 0 6 -12 10 -26
10 -14 0 -32 7 -41 16 -9 8 -22 13 -30 10 -7 -3 -16 1 -19 9 -4 9 -19 15 -40
15 -19 0 -34 5 -34 10 0 6 -25 10 -55 10 -30 0 -55 -4 -55 -10 0 -5 -11 -10
-25 -10 -14 0 -25 -4 -25 -9 0 -5 -10 -13 -22 -17 -27 -8 -47 -32 -48 -56 0
-10 -7 -18 -16 -18 -13 0 -15 -13 -10 -92 2 -51 5 -103 5 -116 1 -12 9 -26 19
-29 26 -10 42 -30 42 -52 0 -12 5 -21 12 -21 18 0 113 -103 127 -139 8 -17 17
-31 22 -31 16 0 69 -62 69 -80 0 -10 11 -25 25 -34 16 -10 25 -26 25 -41 0
-15 6 -25 15 -25 9 0 12 -6 9 -15 -4 -8 1 -17 10 -21 9 -3 16 -17 16 -30 0
-13 5 -24 10 -24 6 0 10 -11 10 -25 0 -16 6 -25 16 -25 11 0 13 -6 9 -19 -3
-11 1 -25 10 -34 8 -9 15 -27 15 -41 0 -14 5 -28 10 -31 6 -3 10 -17 10 -30 0
-13 7 -30 15 -39 8 -8 15 -28 15 -45 0 -17 4 -31 9 -31 10 0 19 -67 27 -202 4
-59 2 -88 -5 -88 -7 0 -11 -23 -11 -55 0 -30 -4 -55 -10 -55 -5 0 -10 -20 -10
-45 0 -33 -4 -45 -15 -45 -10 0 -15 -11 -15 -35 0 -19 -4 -35 -10 -35 -5 0
-10 -13 -10 -30 0 -16 -4 -30 -10 -30 -5 0 -10 -11 -10 -25 0 -16 -6 -25 -15
-25 -10 0 -15 -10 -15 -30 0 -16 -4 -30 -10 -30 -5 0 -10 -5 -10 -11 0 -6 -7
-17 -16 -26 -8 -9 -13 -22 -10 -29 3 -8 -1 -14 -9 -14 -9 0 -15 -9 -15 -21 0
-12 -16 -37 -35 -56 -20 -19 -33 -38 -30 -43 3 -5 -11 -24 -31 -42 -20 -18
-87 -84 -150 -145 -62 -62 -118 -113 -125 -113 -6 0 -26 -16 -45 -35 -18 -19
-37 -35 -41 -35 -17 0 -82 -38 -76 -44 4 -3 -1 -6 -10 -6 -9 0 -17 -4 -17 -9
0 -5 -24 -13 -54 -16 -40 -5 -55 -12 -59 -25 -3 -14 -19 -20 -61 -25 -31 -4
-59 -11 -62 -16 -3 -5 -20 -9 -37 -9 -20 0 -38 -7 -46 -18 -10 -15 -23 -18
-66 -14 -32 3 -55 0 -59 -7 -5 -7 -64 -11 -182 -11 -96 0 -174 -4 -174 -8 0
-5 -19 -17 -42 -27 -80 -35 -98 -67 -98 -172 0 -48 4 -83 10 -83 5 0 12 -10
15 -23 4 -13 21 -32 38 -42 18 -10 39 -27 48 -37 9 -10 26 -18 38 -18 12 0 21
-6 21 -15 0 -10 10 -15 34 -15 19 0 38 -4 41 -10 8 -13 285 -13 285 0 0 6 23
10 50 10 36 0 52 4 56 15 5 11 22 15 65 15 33 0 59 4 59 10 0 6 26 10 59 10
33 0 63 5 66 10 3 6 24 10 45 10 21 0 45 7 54 15 8 8 26 15 40 15 14 0 27 4
30 9 3 5 23 12 43 16 20 4 44 15 53 25 9 10 33 21 53 25 20 4 37 11 37 15 0
10 67 50 83 50 7 0 20 9 30 20 9 11 24 20 32 20 9 0 27 11 41 25 14 14 29 25
34 25 5 0 37 27 71 60 34 33 65 60 70 60 13 0 69 55 69 68 0 13 88 102 101
102 6 0 8 4 5 8 -3 5 4 15 15 22 10 8 19 20 19 27 0 7 11 23 25 37 14 14 25
32 25 41 0 9 7 18 15 21 8 4 15 12 15 20 0 8 5 14 10 14 6 0 10 6 10 14 0 8 7
16 15 20 8 3 15 15 15 26 0 11 5 20 10 20 6 0 10 9 10 20 0 11 5 20 10 20 6 0
10 11 10 25 0 16 6 25 15 25 9 0 15 9 15 25 0 14 5 25 10 25 6 0 10 11 10 24
0 13 7 26 15 30 9 3 15 18 15 36 0 16 4 30 9 30 8 0 13 26 27 145 4 27 12 54
19 60 13 10 23 76 29 182 1 32 9 59 19 71 24 26 24 177 1 203 -9 10 -17 40
-19 71 -6 99 -18 173 -28 180 -11 6 -21 68 -34 188 -3 30 -10 58 -16 62 -7 4
-10 23 -9 42 2 21 -3 45 -12 58 -20 28 -21 82 -1 98 8 7 15 25 15 41 0 16 5
29 11 29 5 0 8 4 4 9 -3 6 2 14 11 19 9 5 15 15 12 23 -2 7 41 58 99 116 57
57 103 108 103 113 0 6 27 37 60 70 33 33 60 65 60 71 0 13 25 39 38 39 12 0
24 29 16 41 -3 5 -1 9 5 9 5 0 13 9 16 20 4 11 11 18 16 15 5 -4 9 3 9 13 0
11 7 22 15 26 8 3 15 15 15 26 0 11 5 20 10 20 6 0 10 11 10 25 0 16 6 25 15
25 9 0 15 9 15 25 0 14 5 25 10 25 6 0 10 9 10 20 0 11 5 20 10 20 6 0 10 13
10 29 0 16 7 36 15 45 8 8 15 28 15 45 0 17 5 31 10 31 6 0 10 17 10 39 0 22
6 44 15 51 8 7 15 27 15 46 0 18 4 35 9 38 9 6 20 63 24 125 1 19 8 36 15 39
17 5 18 468 0 474 -7 3 -11 21 -10 46 2 28 -2 44 -11 48 -9 3 -12 15 -9 34 2
18 -2 35 -11 44 -8 9 -12 25 -9 41 3 18 -1 30 -14 39 -14 11 -18 24 -15 55 1
24 -2 41 -8 41 -6 0 -11 16 -11 35 0 24 -5 35 -15 35 -10 0 -15 11 -15 35 0
19 -4 35 -10 35 -5 0 -10 11 -10 25 0 14 -4 25 -9 25 -5 0 -17 23 -27 50 -10
28 -22 50 -26 50 -4 0 -8 6 -8 14 0 8 -7 16 -15 20 -8 3 -15 14 -15 25 0 11
-9 25 -20 31 -12 6 -20 21 -20 35 0 14 -5 25 -11 25 -17 0 -39 27 -39 49 0 12
-5 21 -10 21 -14 0 -65 53 -94 98 -33 52 -199 212 -219 212 -5 0 -27 18 -49
40 -23 22 -45 40 -50 40 -5 0 -6 5 -3 10 3 6 -3 10 -13 10 -11 0 -25 7 -32 15
-7 8 -19 15 -26 15 -8 0 -14 5 -14 10 0 6 -6 10 -14 10 -8 0 -16 7 -20 15 -3
8 -14 15 -25 15 -11 0 -21 3 -23 8 -4 10 -67 42 -84 42 -8 0 -14 5 -14 10 0 6
-9 10 -20 10 -11 0 -20 4 -20 8 0 10 -71 42 -93 42 -10 0 -17 5 -17 10 0 6
-13 10 -29 10 -16 0 -31 6 -35 15 -3 9 -18 15 -36 15 -16 0 -30 5 -30 10 0 6
-16 10 -36 10 -19 0 -42 7 -50 15 -11 10 -36 15 -80 15 -36 0 -64 4 -64 10 0
6 -115 10 -324 10 -206 0 -327 -4 -331 -10z"/>
<path d="M1720 11780 c0 -5 -20 -10 -45 -10 -31 0 -47 -5 -51 -15 -4 -9 -19
-15 -40 -15 -19 0 -34 -4 -34 -9 0 -6 -20 -13 -44 -16 -25 -4 -54 -16 -65 -26
-11 -10 -24 -19 -29 -19 -11 0 -75 -31 -82 -39 -12 -15 -61 -41 -76 -41 -9 0
-25 -11 -36 -25 -11 -14 -26 -25 -34 -25 -7 0 -36 -22 -64 -50 -28 -27 -55
-50 -61 -50 -15 0 -219 -204 -219 -219 0 -7 -20 -32 -45 -55 -25 -24 -45 -48
-45 -54 0 -6 -11 -22 -25 -36 -14 -14 -25 -30 -25 -36 0 -5 -4 -10 -10 -10 -5
0 -10 -11 -10 -24 0 -14 -11 -33 -25 -44 -14 -11 -25 -27 -25 -35 0 -8 -5 -17
-10 -19 -6 -2 -12 -13 -13 -25 0 -13 -6 -24 -12 -27 -6 -2 -17 -27 -25 -56 -8
-29 -20 -54 -27 -57 -7 -3 -13 -16 -13 -30 0 -16 -4 -22 -12 -17 -8 5 -9 -3
-5 -31 5 -32 3 -38 -14 -42 -15 -4 -19 -13 -17 -32 1 -14 -2 -33 -7 -41 -5 -8
-10 -44 -10 -80 -1 -36 -5 -74 -11 -85 -14 -31 -12 -567 3 -572 8 -3 10 -20 7
-51 -4 -27 -1 -60 7 -77 6 -16 11 -41 10 -55 -1 -15 6 -34 18 -44 13 -12 22
-37 27 -72 4 -36 11 -54 20 -54 8 0 14 -10 14 -25 0 -14 5 -25 10 -25 6 0 10
-9 10 -19 0 -10 6 -21 14 -24 9 -4 12 -14 9 -26 -4 -15 -1 -21 11 -21 10 0 16
-9 16 -25 0 -14 5 -25 10 -25 6 0 10 -9 10 -21 0 -13 8 -23 21 -26 12 -4 22
-17 26 -35 3 -18 15 -34 29 -40 13 -6 24 -19 24 -30 0 -10 5 -18 10 -18 6 0
10 -4 10 -10 0 -8 61 -74 185 -200 39 -40 62 -60 69 -60 2 0 31 -27 64 -60 33
-33 67 -60 75 -60 8 0 23 -11 33 -25 10 -14 25 -25 32 -25 7 0 24 -11 38 -25
14 -14 30 -25 35 -25 15 0 71 -32 89 -51 8 -9 33 -19 55 -23 21 -4 46 -16 55
-26 10 -11 37 -22 68 -26 29 -3 52 -10 52 -15 0 -5 15 -9 34 -9 21 0 36 -6 40
-15 4 -11 21 -15 65 -15 33 0 63 -4 66 -10 8 -13 697 -14 711 -1 5 5 38 11 73
13 37 3 67 10 69 16 2 7 19 12 38 12 19 0 34 4 34 9 0 5 23 12 51 16 27 4 48
10 45 13 -9 8 45 42 67 42 9 0 17 3 17 8 0 4 20 27 45 52 25 25 44 55 45 67 0
12 5 25 10 28 6 3 10 28 10 55 0 27 -4 52 -10 55 -5 3 -10 17 -10 30 0 15 -7
26 -20 30 -11 3 -20 13 -20 21 0 8 -7 14 -16 14 -8 0 -13 4 -9 9 3 6 -10 13
-30 17 -19 3 -35 10 -35 15 0 5 -40 9 -90 9 -49 0 -90 -4 -90 -9 0 -5 -39 -12
-87 -16 -68 -6 -91 -11 -100 -25 -10 -14 -33 -20 -98 -25 -47 -4 -88 -11 -91
-16 -7 -12 -294 -12 -294 0 0 5 -38 12 -85 16 -65 5 -88 11 -98 24 -8 13 -32
20 -79 25 -38 4 -68 12 -68 17 0 5 -13 9 -29 9 -16 0 -31 6 -35 15 -3 8 -15
15 -26 15 -11 0 -20 5 -20 10 0 6 -11 10 -25 10 -14 0 -25 4 -25 10 0 5 -16
17 -35 26 -19 9 -35 20 -35 25 0 5 -9 9 -19 9 -11 0 -28 11 -39 25 -11 14 -25
25 -31 25 -6 0 -11 5 -11 10 0 6 -7 10 -15 10 -21 0 -145 124 -175 175 -13 22
-30 44 -37 48 -7 4 -13 18 -13 30 0 13 -9 26 -22 32 -14 6 -24 21 -26 38 -2
15 -9 27 -17 27 -8 0 -11 7 -8 20 3 12 -1 22 -11 26 -9 3 -16 15 -16 25 0 10
-4 19 -10 19 -5 0 -10 11 -10 25 0 16 -6 25 -15 25 -10 0 -15 10 -15 30 0 17
-4 30 -10 30 -5 0 -10 20 -10 44 0 24 -5 46 -10 48 -16 5 -18 654 -2 670 7 7
12 29 12 50 0 21 5 38 10 38 6 0 10 11 10 24 0 13 7 26 15 30 8 3 15 15 15 26
0 11 5 20 10 20 6 0 10 11 10 25 0 14 5 25 10 25 6 0 10 9 10 20 0 11 7 23 15
26 8 4 15 16 15 28 0 12 11 30 25 40 14 10 25 26 25 35 0 9 9 23 20 31 11 8
20 21 20 29 0 18 194 211 212 211 8 0 20 9 28 20 8 11 21 20 30 20 8 0 26 12
39 25 13 14 29 25 36 25 19 0 75 30 75 41 0 5 11 9 25 9 14 0 25 4 25 9 0 6
21 13 48 17 26 4 54 15 62 24 9 10 38 21 68 25 28 4 52 11 52 15 0 9 56 40 72
40 15 0 89 84 104 118 16 39 19 172 4 172 -5 0 -10 6 -10 13 0 20 -35 57 -53
57 -8 0 -17 7 -21 15 -3 8 -14 15 -25 15 -11 0 -23 5 -26 10 -3 6 -50 10 -106
10 -59 0 -99 -4 -99 -10z"/>
<path d="M3685 11190 c-3 -5 -23 -10 -43 -10 -29 0 -46 -8 -82 -41 -35 -32
-41 -42 -30 -50 10 -6 11 -9 3 -9 -29 0 -9 -200 20 -200 4 0 7 -9 7 -20 0 -11
4 -20 9 -20 5 0 12 -11 15 -25 4 -14 11 -25 16 -25 6 0 10 -11 10 -24 0 -13 7
-26 15 -30 8 -3 15 -15 15 -26 0 -11 3 -20 8 -20 4 0 15 -21 26 -48 35 -89 41
-102 48 -102 3 0 10 -25 13 -55 4 -30 11 -52 16 -49 5 3 9 -8 9 -25 0 -16 4
-32 9 -35 8 -5 13 -26 25 -96 15 -89 19 -107 26 -125 5 -11 12 -54 15 -95 6
-70 11 -1989 17 -6619 2 -1505 6 -1895 16 -1899 7 -2 12 -20 12 -42 0 -21 4
-41 9 -44 5 -4 12 -25 16 -49 4 -23 15 -61 25 -83 11 -23 22 -54 26 -68 3 -14
10 -26 15 -26 5 0 9 -9 9 -20 0 -11 3 -20 8 -20 4 0 15 -18 25 -40 9 -22 21
-40 27 -40 5 0 10 -9 10 -20 0 -11 5 -20 10 -20 6 0 14 -8 18 -18 11 -29 51
-77 143 -170 86 -88 135 -132 145 -132 3 0 12 -6 19 -12 33 -30 45 -38 55 -38
5 0 10 -4 10 -9 0 -5 14 -12 30 -16 17 -4 30 -11 30 -16 0 -5 7 -9 15 -9 8 0
15 -4 15 -9 0 -5 13 -12 30 -16 16 -4 32 -11 35 -16 4 -5 15 -9 26 -9 10 0 19
-4 19 -9 0 -5 18 -12 40 -16 22 -4 42 -11 46 -16 3 -5 16 -9 30 -9 13 0 24 -4
24 -10 0 -5 12 -10 28 -10 15 0 64 -7 110 -16 72 -15 88 -15 124 -3 49 16 78
44 78 76 0 13 5 23 10 23 7 0 10 1038 10 3093 1 1899 5 3131 11 3192 5 55 12
133 15 173 4 40 11 75 15 78 5 3 9 31 9 62 0 31 7 88 15 127 8 38 15 82 15 97
0 16 5 28 10 28 6 0 10 21 10 46 0 25 4 43 9 40 5 -3 12 21 16 54 4 33 11 63
16 66 5 3 9 16 9 30 0 13 4 24 9 24 5 0 11 22 15 50 4 27 11 52 16 55 6 3 10
15 10 26 0 10 5 19 10 19 6 0 10 9 10 20 0 20 29 101 39 110 4 3 15 31 25 63
11 31 23 57 28 57 4 0 8 6 8 14 0 17 32 80 43 84 4 2 7 10 7 18 0 8 5 14 11
14 5 0 7 5 4 10 -3 6 -1 10 4 10 6 0 11 9 11 20 0 11 5 20 10 20 6 0 10 7 10
15 0 8 4 15 10 15 5 0 12 11 16 25 3 14 9 25 14 25 4 0 15 16 26 35 10 19 21
35 24 35 3 0 14 14 24 31 25 42 30 48 145 164 141 142 183 175 220 175 10 0
21 7 25 15 3 8 14 15 25 15 11 0 23 5 26 10 3 6 19 10 36 10 16 0 29 3 29 8 0
7 29 25 62 38 10 3 20 14 23 25 3 10 14 20 24 24 26 8 51 75 51 138 0 44 -3
57 -15 57 -8 0 -15 3 -15 8 0 4 -12 20 -27 37 -25 29 -26 29 -121 27 -53 -2
-99 -6 -102 -11 -6 -9 -33 -16 -128 -34 -35 -7 -60 -15 -56 -19 4 -5 -5 -8
-19 -8 -15 0 -27 -4 -27 -10 0 -5 -16 -12 -35 -16 -20 -3 -34 -9 -31 -12 3 -2
-12 -14 -34 -26 -36 -20 -72 -46 -130 -96 -48 -41 -65 -55 -94 -78 -16 -12
-26 -22 -23 -22 2 0 -23 -29 -57 -64 -33 -36 -70 -76 -81 -90 -11 -15 -35 -44
-53 -65 -19 -22 -33 -42 -32 -46 1 -4 -8 -15 -19 -24 -12 -10 -21 -23 -21 -29
0 -6 -6 -17 -12 -24 -27 -28 -68 -87 -68 -97 0 -6 -4 -11 -8 -11 -4 0 -21 -22
-37 -50 -16 -27 -33 -50 -37 -50 -4 0 -8 -9 -8 -20 0 -11 -7 -23 -15 -26 -8
-4 -15 -15 -15 -25 0 -10 -4 -19 -10 -19 -5 0 -10 -6 -10 -13 0 -7 -15 -35
-34 -63 -20 -30 -37 -70 -41 -97 -4 -26 -11 -47 -16 -47 -5 0 -9 -7 -9 -16 0
-8 -4 -13 -9 -10 -5 3 -12 -35 -16 -84 -4 -50 -11 -93 -16 -96 -5 -3 -9 -23
-9 -45 0 -21 -4 -39 -9 -39 -4 0 -11 -34 -14 -75 -4 -42 -11 -84 -17 -95 -5
-10 -10 -34 -10 -54 0 -19 -4 -37 -9 -40 -4 -3 -11 -39 -14 -81 -4 -42 -11
-84 -17 -95 -5 -10 -10 -39 -10 -64 0 -25 -4 -46 -10 -46 -5 0 -10 -23 -10
-51 0 -27 -4 -48 -9 -45 -5 3 -12 -35 -15 -84 -4 -49 -12 -92 -17 -95 -5 -4
-9 -28 -9 -56 0 -27 -4 -49 -9 -49 -4 0 -11 -39 -15 -86 -3 -47 -11 -94 -16
-104 -6 -10 -10 -39 -10 -65 0 -28 -4 -44 -10 -40 -6 4 -10 -11 -10 -37 0 -24
-5 -72 -11 -108 -5 -36 -12 -83 -15 -105 -3 -22 -8 -47 -12 -55 -8 -21 -30
-170 -38 -262 -4 -43 -10 -78 -14 -78 -4 0 -10 -35 -14 -77 -4 -43 -9 -89 -12
-103 -2 -14 -7 -58 -10 -98 -4 -40 -11 -75 -15 -78 -5 -3 -9 -33 -9 -67 0 -44
-3 -58 -10 -47 -7 10 -10 -9 -12 -65 -1 -47 -3 -63 -5 -37 -2 23 -8 42 -14 42
-5 0 -9 148 -9 378 0 207 -4 402 -9 432 -5 30 -13 429 -18 885 -4 457 -10 765
-13 685 -4 -93 -7 -2 -8 255 -2 318 -6 408 -17 440 -12 32 -15 129 -16 510 -1
259 -5 454 -9 435 -4 -19 -8 115 -9 298 0 182 -5 332 -10 332 -4 0 -11 44 -14
98 -6 106 -10 128 -20 138 -4 4 -7 27 -7 51 0 24 -4 43 -10 43 -5 0 -10 8 -10
19 0 10 -7 32 -15 47 -8 16 -15 41 -15 57 0 15 -4 27 -10 27 -5 0 -10 11 -10
25 0 14 -4 25 -10 25 -5 0 -13 18 -16 40 -4 22 -10 40 -15 40 -5 0 -9 9 -9 19
0 11 -4 22 -9 25 -5 4 -12 24 -16 46 -4 22 -10 38 -14 35 -4 -2 -14 11 -21 30
-8 19 -18 35 -22 35 -5 0 -7 4 -3 9 3 5 1 12 -5 16 -5 3 -10 15 -10 26 0 10
-4 19 -10 19 -5 0 -10 5 -10 11 0 6 -7 17 -15 25 -8 9 -15 26 -15 40 0 13 -5
24 -11 24 -15 0 -39 26 -39 42 0 8 -23 34 -52 59 -28 24 -58 52 -67 62 -8 9
-23 17 -33 17 -9 0 -20 5 -23 10 -3 6 -17 10 -31 10 -13 0 -24 5 -24 10 0 6
-6 10 -14 10 -8 0 -18 -4 -21 -10z"/>
<path d="M3519 10353 c-1 -5 0 -32 1 -62 1 -36 -2 -56 -11 -62 -12 -7 -11 -11
1 -20 11 -8 12 -12 3 -16 -16 -6 -18 -123 -3 -123 6 0 10 -7 10 -15 0 -8 -4
-15 -10 -15 -9 0 -6 -414 4 -695 2 -44 -1 -83 -6 -86 -6 -4 -5 -15 4 -28 11
-18 11 -23 -2 -32 -11 -8 -12 -12 -2 -16 14 -6 17 -89 2 -98 -10 -6 -3 -58 12
-87 5 -10 18 -18 28 -18 11 0 20 -5 20 -12 0 -6 2 -9 5 -7 11 12 -9 49 -26 49
-14 0 -19 7 -19 25 0 18 5 25 20 25 11 0 21 6 21 13 1 6 2 17 4 22 1 6 3 18 3
28 2 21 22 23 22 2 0 -8 5 -15 10 -15 17 0 11 25 -10 40 -21 15 -28 50 -10 50
6 0 10 -9 10 -20 0 -11 5 -20 10 -20 14 0 12 47 -2 54 -10 5 -10 7 0 12 7 4
12 27 12 65 0 52 -2 59 -20 59 -11 0 -20 5 -20 10 0 6 5 10 10 10 6 0 10 7 10
15 0 8 5 15 10 15 6 0 10 -9 10 -21 0 -29 17 -15 25 21 4 17 11 30 16 30 5 0
9 5 9 10 0 6 -7 10 -15 10 -8 0 -15 5 -15 10 0 6 6 10 14 10 8 0 17 8 19 18 4
16 5 16 6 0 0 -10 6 -18 12 -18 7 0 9 9 5 23 -3 12 -6 25 -6 29 0 4 -21 5 -47
3 -27 -2 -41 -1 -33 2 8 4 23 15 33 27 15 17 20 18 27 6 10 -17 15 -13 24 18
7 21 -8 33 -16 12 -5 -15 -53 -17 -52 -2 1 6 2 28 3 47 1 33 21 52 21 20 0 -8
5 -15 10 -15 6 0 10 5 10 11 0 15 -28 41 -38 35 -5 -3 -18 1 -30 10 -18 12
-19 18 -10 44 10 31 23 39 31 18 2 -7 8 -9 13 -5 5 4 2 12 -6 18 -13 8 -13 10
0 19 11 8 8 9 -12 4 -17 -4 -28 -2 -28 5 0 6 7 8 15 5 10 -4 15 0 15 15 0 12
-6 21 -15 21 -21 0 -19 17 3 22 14 4 17 15 17 54 -1 42 -4 49 -23 52 -30 5
-29 39 1 45 l22 4 -22 2 c-20 1 -23 7 -24 44 -3 175 -7 219 -20 229 -11 7 -11
11 -1 15 20 8 14 23 -10 24 -13 0 -17 3 -10 6 6 2 12 9 12 14 0 11 -29 12 -31
2z"/>
<path d="M4830 9006 c0 -14 -7 -31 -15 -40 -8 -8 -15 -26 -15 -41 0 -14 -12
-51 -26 -82 -15 -30 -26 -66 -26 -79 0 -14 -6 -24 -14 -24 -10 0 -14 -14 -14
-45 0 -28 -5 -48 -13 -51 -8 -3 -13 -25 -14 -62 -12 -443 -12 -496 0 -505 9
-7 9 -10 0 -14 -7 -2 -13 -11 -13 -19 0 -17 36 -19 43 -1 4 10 6 10 6 0 2 -24
21 -13 21 11 0 13 6 27 13 29 9 4 8 8 -3 16 -8 5 -11 13 -7 17 4 4 13 2 19 -4
17 -17 48 -15 48 3 0 8 -4 15 -10 15 -5 0 -10 -4 -10 -10 0 -5 -4 -10 -10 -10
-5 0 -10 12 -10 26 0 20 4 24 19 19 19 -6 51 17 51 36 0 17 -19 9 -25 -11 -3
-11 -11 -20 -16 -20 -13 0 -11 18 4 23 6 2 8 8 4 13 -4 5 -12 2 -18 -6 -8 -13
-10 -13 -19 0 -7 11 -4 17 15 23 17 6 25 16 25 32 0 13 8 29 18 35 12 8 13 13
5 16 -15 7 -18 54 -3 54 6 0 10 -7 10 -15 0 -8 4 -15 10 -15 5 0 12 -11 16
-25 3 -14 10 -25 15 -25 14 0 10 27 -6 44 -20 20 -19 53 3 65 15 9 15 12 2 20
-8 6 -11 14 -6 18 5 4 11 2 13 -4 5 -15 43 -18 43 -4 0 5 -16 12 -35 15 -34 7
-49 26 -20 26 10 0 15 11 15 35 0 19 5 35 10 35 6 0 10 -16 10 -35 0 -24 5
-35 15 -35 8 0 15 -4 15 -9 0 -5 9 -13 20 -16 11 -4 20 -15 20 -26 0 -19 1
-19 17 -4 14 14 14 18 2 26 -8 5 -18 9 -22 9 -5 0 -16 7 -25 16 -11 12 -16 37
-16 95 -1 75 -2 79 -23 79 -13 0 -23 5 -23 10 0 6 11 10 25 10 16 0 25 6 25
15 0 9 9 15 25 15 14 0 25 5 25 10 0 6 -11 10 -25 10 -14 0 -25 -4 -25 -10 0
-5 -7 -10 -15 -10 -20 0 -19 16 1 24 24 9 14 50 -13 54 -28 4 -30 22 -3 22 13
0 20 7 20 20 0 14 -7 20 -22 20 -19 0 -20 2 -8 11 11 8 12 12 3 16 -19 7 -16
21 7 28 11 3 20 11 20 16 0 5 -9 9 -20 9 -11 0 -21 6 -21 13 -1 6 -2 17 -4 22
-1 6 -3 16 -3 23 -1 6 -11 12 -22 12 -11 0 -20 5 -20 11 0 7 10 9 25 7 14 -3
25 -1 25 3 0 5 -11 9 -25 9 -18 0 -25 5 -25 20 0 11 -4 20 -10 20 -5 0 -10
-11 -10 -24z"/>
<path d="M3630 7820 c0 -5 -6 -10 -14 -10 -8 0 -16 -5 -18 -12 -3 -7 -19 -11
-41 -10 -27 2 -37 -1 -37 -12 0 -8 -5 -16 -11 -18 -7 -2 -7 -12 1 -33 8 -21 8
-31 1 -33 -17 -6 -13 -32 5 -32 12 0 14 -5 9 -17 -9 -20 -9 -23 -4 -107 2 -41
0 -61 -9 -64 -15 -5 -16 -36 -2 -63 7 -13 7 -19 0 -19 -14 0 -10 -162 4 -173
8 -6 7 -10 -1 -14 -7 -2 -13 -20 -13 -38 0 -18 6 -36 13 -39 10 -5 10 -7 0
-12 -8 -3 -13 -26 -13 -59 0 -33 5 -56 13 -59 10 -5 10 -7 0 -12 -7 -3 -13
-16 -13 -29 0 -13 6 -26 13 -29 10 -5 10 -7 0 -12 -16 -7 -17 -54 -2 -54 9 0
10 -52 6 -195 -3 -118 -2 -195 4 -195 5 0 9 20 9 45 0 25 5 45 10 45 6 0 10 7
10 15 0 8 -4 15 -10 15 -5 0 -10 5 -10 10 0 6 9 10 20 10 11 0 20 5 20 10 0 6
-4 10 -10 10 -13 0 -13 27 -1 32 6 2 11 35 12 73 3 90 7 105 30 105 11 0 19 5
19 10 0 6 -11 10 -25 10 -24 0 -25 2 -22 57 2 32 9 59 15 61 7 2 12 15 12 28
0 13 5 24 10 24 6 0 10 5 10 10 0 6 -9 10 -20 10 -11 0 -20 7 -20 15 0 8 9 15
20 15 11 0 20 5 20 10 0 6 -9 10 -19 10 -23 0 -29 25 -26 108 1 35 -1 58 -5
51 -6 -9 -12 -9 -24 4 -22 21 -20 30 4 22 16 -5 20 -2 21 17 0 13 3 17 6 11 2
-7 13 -13 24 -13 13 0 19 7 19 24 0 13 6 26 13 29 7 2 8 8 3 13 -5 5 -11 4
-13 -3 -8 -22 -40 -15 -45 10 -4 21 -1 23 21 19 l26 -5 -25 23 c-17 15 -21 24
-12 27 6 3 12 9 12 15 0 6 -6 8 -13 5 -11 -4 -15 41 -8 96 1 4 10 7 21 7 13 0
20 -7 20 -20 0 -11 5 -20 10 -20 6 0 10 9 10 19 0 11 -4 23 -10 26 -5 3 -10
15 -10 26 0 11 -7 19 -16 19 -18 0 -74 53 -74 70 0 5 20 10 45 10 33 0 45 4
45 15 0 9 -9 15 -25 15 -14 0 -25 5 -25 10 0 6 7 10 15 10 8 0 15 5 15 10 0 6
-4 10 -10 10 -5 0 -10 5 -10 10 0 6 8 10 18 10 10 0 25 9 35 20 20 23 21 30 7
30 -5 0 -10 -4 -10 -10z"/>
<path d="M6487 1773 c-33 -2 -55 -8 -52 -14 4 -5 -9 -9 -29 -9 -20 0 -36 -4
-36 -9 0 -5 -20 -12 -45 -15 -24 -4 -47 -11 -50 -17 -4 -5 -17 -9 -30 -9 -13
0 -25 -3 -27 -7 -4 -9 -74 -43 -89 -43 -5 0 -20 -9 -32 -20 -12 -12 -32 -23
-44 -26 -13 -4 -23 -10 -23 -15 0 -5 -7 -9 -15 -9 -8 0 -15 -4 -15 -9 0 -5
-10 -13 -22 -17 -12 -3 -31 -16 -44 -28 -12 -11 -41 -37 -65 -56 -52 -43 -107
-98 -136 -136 -13 -16 -30 -38 -38 -49 -54 -70 -72 -96 -90 -131 -11 -21 -23
-40 -27 -42 -5 -2 -8 -10 -8 -18 0 -8 -4 -14 -10 -14 -5 0 -10 -7 -10 -15 0
-20 -33 -95 -41 -95 -4 0 -10 -22 -14 -50 -4 -27 -11 -50 -16 -50 -5 0 -9 -16
-9 -35 0 -19 -4 -35 -10 -35 -5 0 -10 -18 -10 -39 0 -22 -4 -43 -10 -46 -15
-9 -12 -119 4 -150 8 -15 28 -36 45 -46 30 -18 63 -19 799 -19 627 1 779 3
832 15 36 8 80 14 98 15 17 0 32 5 32 10 0 6 11 10 24 10 14 0 27 4 30 9 4 5
24 12 46 16 22 4 40 11 40 16 0 5 8 9 18 9 9 0 26 7 36 15 11 8 28 15 38 15
10 0 18 5 18 10 0 6 7 10 15 10 8 0 15 4 15 9 0 5 13 12 28 16 15 3 34 15 42
25 8 11 20 20 26 20 7 0 26 14 44 30 18 17 35 30 40 30 10 0 200 189 200 200
0 5 10 20 23 34 45 50 57 67 57 81 0 9 7 18 15 21 8 4 15 15 15 25 0 10 4 19
8 19 4 0 16 23 27 50 11 28 22 50 26 50 4 0 10 10 14 23 4 12 8 24 9 27 2 3 6
19 10 35 4 17 11 38 17 47 5 10 9 29 9 42 0 13 4 26 9 28 12 4 31 195 24 233
-3 17 -15 38 -26 48 -11 9 -16 18 -11 18 106 14 -1438 25 -1649 12z"/>
</g>
</svg>
