<svg xmlns="http://www.w3.org/2000/svg" viewBox="0 0 500 500"><g id="freepik--background-simple--inject-54"><path d="M381.65,146.18c35,.72,58.93,67.13,40.71,112.93C397.54,321.52,281.81,357.94,210,357.85c-37.69-.05-97.45,0-130.88-74.77-17.71-39.59-15.27-153.44,41.1-168.53,89.17-23.88,89,65.24,124.41,69.27C295,189.56,302.92,144.58,381.65,146.18Z" style="fill:#22577A"></path><path d="M381.65,146.18c35,.72,58.93,67.13,40.71,112.93C397.54,321.52,281.81,357.94,210,357.85c-37.69-.05-97.45,0-130.88-74.77-17.71-39.59-15.27-153.44,41.1-168.53,89.17-23.88,89,65.24,124.41,69.27C295,189.56,302.92,144.58,381.65,146.18Z" style="fill:#fff;opacity:0.9"></path></g><g id="freepik--Shadow--inject-54"><ellipse id="freepik--path--inject-54" cx="245.18" cy="412.39" rx="193.89" ry="11.32" style="fill:#f5f5f5"></ellipse></g><g id="freepik--Strawberry--inject-54"><path d="M355.53,341.13s-.7-9.5,5.83-9.28S360,333.07,355.53,341.13Z" style="fill:#263238"></path><g style="opacity:0.30000000000000004"><path d="M355.53,341.13s-.7-9.5,5.83-9.28S360,333.07,355.53,341.13Z" style="fill:#fff"></path></g><path d="M348.89,342s-8-2.85-5.81-5.46c1.86-2.2,3.43,2.58,5.95,2.72,0,0-.93-5.59,1.92-6.42,0,0,.11,5.15,3.05,6.58,0,0,3.41-3.86,9.68-1.7,0,0-7,2-4.85,3.41s7.9-3.77,9.4-1.4-4.62,3.46-4.62,3.46a15.31,15.31,0,0,0,6.84,2.6s-3.13,3.29-9.84-.45S348.89,342,348.89,342Z" style="fill:#22577A"></path><path d="M371.32,360.3c-2.21,6.4-18.47,22.14-28.5,18.68s-10.06-24.81-7.86-31.21,12.13-8.77,22.17-5.31S373.52,353.91,371.32,360.3Z" style="fill:#22577A"></path><path d="M371.32,360.3c-2.21,6.4-18.47,22.14-28.5,18.68s-10.06-24.81-7.86-31.21,12.13-8.77,22.17-5.31S373.52,353.91,371.32,360.3Z" style="fill:#fff;opacity:0.4"></path><path d="M336.4,361.8s-2.23-14,2.83-16.15S336.62,351.92,336.4,361.8Z" style="fill:#fff;opacity:0.2"></path><path d="M343.79,375.43c-6.87-1.51-9-8.53-9.08-8.69,1.19,5.68,3.67,10.71,8.11,12.24,10,3.46,26.29-12.28,28.5-18.68a8.87,8.87,0,0,0-.18-6C372.34,360.23,350.75,377,343.79,375.43Z" style="opacity:0.1"></path><g style="opacity:0.8"><path d="M337.35,348c-.28.82-.85,1.36-1.28,1.21s-.54-.92-.26-1.74.85-1.36,1.28-1.21S337.63,347.2,337.35,348Z" style="fill:#fff"></path><path d="M344.86,350.61c-.28.82-.85,1.36-1.28,1.21s-.54-.93-.26-1.74.85-1.36,1.28-1.22S345.14,349.79,344.86,350.61Z" style="fill:#fff"></path><path d="M352.37,353.2c-.28.81-.85,1.36-1.28,1.21s-.54-.93-.26-1.74.85-1.36,1.28-1.22S352.65,352.38,352.37,353.2Z" style="fill:#fff"></path><path d="M359.88,355.79c-.28.81-.86,1.36-1.28,1.21s-.55-.93-.26-1.75.85-1.36,1.28-1.21S360.16,355,359.88,355.79Z" style="fill:#fff"></path><path d="M367.39,358.37c-.28.82-.86,1.37-1.28,1.22s-.55-.93-.26-1.75.85-1.36,1.28-1.21S367.67,357.56,367.39,358.37Z" style="fill:#fff"></path><path d="M338,355.74c-.28.82-.86,1.36-1.28,1.21s-.55-.93-.26-1.74.85-1.36,1.28-1.22S338.31,354.92,338,355.74Z" style="fill:#fff"></path><path d="M345.54,358.33c-.28.82-.86,1.36-1.28,1.21s-.55-.93-.27-1.74.86-1.36,1.29-1.22S345.82,357.51,345.54,358.33Z" style="fill:#fff"></path><path d="M353.05,360.92c-.28.81-.86,1.36-1.28,1.21s-.55-.93-.27-1.75.86-1.36,1.29-1.21S353.33,360.1,353.05,360.92Z" style="fill:#fff"></path><path d="M360.56,363.5c-.29.82-.86,1.37-1.29,1.22s-.54-.93-.26-1.75.86-1.36,1.28-1.21S360.84,362.69,360.56,363.5Z" style="fill:#fff"></path><path d="M366.63,365.6c-.29.81-.86,1.36-1.29,1.21s-.54-.93-.26-1.74.86-1.37,1.28-1.22S366.91,364.78,366.63,365.6Z" style="fill:#fff"></path><path d="M338.48,363c-.28.81-.85,1.36-1.28,1.21s-.54-.93-.26-1.75.85-1.36,1.28-1.21S338.76,362.17,338.48,363Z" style="fill:#fff"></path><path d="M346,365.57c-.28.82-.85,1.36-1.28,1.22s-.54-.93-.26-1.75.85-1.36,1.28-1.21S346.27,364.76,346,365.57Z" style="fill:#fff"></path><path d="M341.88,374.8c-.29.82-.86,1.36-1.29,1.22s-.54-.93-.26-1.75.86-1.36,1.28-1.21S342.16,374,341.88,374.8Z" style="fill:#fff"></path><path d="M348.55,376.46c-.28.81-.85,1.36-1.28,1.21s-.54-.93-.26-1.75.86-1.36,1.28-1.21S348.84,375.64,348.55,376.46Z" style="fill:#fff"></path><path d="M353.5,368.16c-.28.82-.86,1.36-1.28,1.22s-.55-.93-.26-1.75.85-1.36,1.28-1.21S353.78,367.34,353.5,368.16Z" style="fill:#fff"></path><path d="M359.46,370.22c-.28.82-.85,1.36-1.28,1.21s-.54-.93-.26-1.74.86-1.36,1.28-1.22S359.75,369.4,359.46,370.22Z" style="fill:#fff"></path><path d="M338.88,369.13c-.28.82-.86,1.36-1.28,1.21s-.55-.92-.27-1.74.86-1.36,1.29-1.21S339.16,368.31,338.88,369.13Z" style="fill:#fff"></path><path d="M346.39,371.72c-.29.82-.86,1.36-1.29,1.21s-.54-.93-.26-1.74.86-1.36,1.28-1.22S346.67,370.9,346.39,371.72Z" style="fill:#fff"></path><path d="M353.9,374.31c-.29.82-.86,1.36-1.29,1.21s-.54-.93-.26-1.74.86-1.36,1.28-1.22S354.18,373.49,353.9,374.31Z" style="fill:#fff"></path><path d="M344.23,343.91c-.28.82-.85,1.37-1.28,1.22s-.54-.93-.26-1.75.85-1.36,1.28-1.21S344.51,343.1,344.23,343.91Z" style="fill:#fff"></path><path d="M351.74,346.5c-.28.82-.85,1.36-1.28,1.22s-.54-.93-.26-1.75.85-1.36,1.28-1.21S352,345.69,351.74,346.5Z" style="fill:#fff"></path><path d="M359.25,349.09c-.28.82-.86,1.36-1.28,1.21s-.55-.92-.26-1.74.85-1.36,1.28-1.21S359.53,348.27,359.25,349.09Z" style="fill:#fff"></path><path d="M366.76,351.68c-.28.82-.86,1.36-1.28,1.21s-.55-.93-.26-1.74.85-1.36,1.28-1.22S367,350.86,366.76,351.68Z" style="fill:#fff"></path></g></g><g id="freepik--Broccoli--inject-54"><path d="M403.81,281.3a4.79,4.79,0,0,0,2.08-6.45,4.65,4.65,0,0,0-.86-1.18l.21-.09a6.76,6.76,0,0,0-2.76-12.77,6.88,6.88,0,0,0-.73-3.41,6.78,6.78,0,0,0-9.11-2.93,6.7,6.7,0,0,0-2,1.6,4.81,4.81,0,0,0-5.57-.87,4.76,4.76,0,0,0-2.51,3.37,4.79,4.79,0,0,0-6.64,5.61,7,7,0,0,0,6.48,10.32,4.78,4.78,0,0,0,5.83,5.75,5.86,5.86,0,0,0,.59,1.77,6.14,6.14,0,0,0,11.16-.5A4.79,4.79,0,0,0,403.81,281.3Z" style="fill:#22577A"></path><path d="M395.75,285.17c6.47-4.43,1.29-10.54,1.29-10.54,2-7.74-4.31-7.63-4.31-7.63-2.08-6.24-7.1-1.56-7.1-1.56h-5.72l-4.37,4.6c.09.22.18.44.29.66a7,7,0,0,0,6.54,3.8,4.78,4.78,0,0,0,5.83,5.75,5.86,5.86,0,0,0,.59,1.77A6.15,6.15,0,0,0,395.75,285.17Z" style="opacity:0.1"></path><path d="M393.55,274.67a6,6,0,0,0-2.07-10.39,8.43,8.43,0,0,0-5.21-10.14A8.44,8.44,0,0,0,373,244.73a8.18,8.18,0,0,0-2.08,2.48,6,6,0,0,0-9.24,5.13,6,6,0,0,0-6,9.59,6.21,6.21,0,0,0,1.77,1.48,8.77,8.77,0,0,0,11.92,9.91l.22.3a6,6,0,0,0,6.2,2,4.15,4.15,0,0,0,.3.43,6,6,0,0,0,8.43.88,5.92,5.92,0,0,0,1.66-2.15A6,6,0,0,0,393.55,274.67Z" style="fill:#22577A"></path><path d="M393.55,274.67a6,6,0,0,0-2.07-10.39,8.43,8.43,0,0,0-5.21-10.14A8.44,8.44,0,0,0,373,244.73a8.18,8.18,0,0,0-2.08,2.48,6,6,0,0,0-9.24,5.13,6,6,0,0,0-6,9.59,6.21,6.21,0,0,0,1.77,1.48,8.77,8.77,0,0,0,11.92,9.91l.22.3a6,6,0,0,0,6.2,2,4.15,4.15,0,0,0,.3.43,6,6,0,0,0,8.43.88,5.92,5.92,0,0,0,1.66-2.15A6,6,0,0,0,393.55,274.67Z" style="fill:#fff;opacity:0.2"></path><path d="M385.68,267.16s.41-5.41-3.56-7.05c-5.33-2.2-10.41,4.66-10.41,4.66s-6.85-5.07-10.83-2.06-1.67,8-1.67,8a8.78,8.78,0,0,0,10.15,2.59l.22.3a6,6,0,0,0,6.2,2,4.15,4.15,0,0,0,.3.43,6,6,0,0,0,8.43.88,5.92,5.92,0,0,0,1.66-2.15,6,6,0,0,0,7.38-.12C398.27,267.32,385.68,267.16,385.68,267.16Z" style="opacity:0.1"></path><path d="M361.28,265.47S369,278,355.36,298.35c0,0,2.19,13.82,18,8.66,0,0,2.85-23.12,23.68-26.74a4.25,4.25,0,0,0-1.76-4.06s-9.86,6.25-12.38,4.27S391,272.7,391,272.7s-2-3.94-4.72-3.83c0,0-5.15,7.12-8.76,5.81s0-9.21,0-9.21a5.08,5.08,0,0,0-5.26-.66s-.66,8.66-2.52,8.33-3.07-8.83-3.07-8.83S364.34,263.06,361.28,265.47Z" style="fill:#22577A"></path><path d="M361.28,265.47S369,278,355.36,298.35c0,0,2.19,13.82,18,8.66,0,0,2.85-23.12,23.68-26.74a4.25,4.25,0,0,0-1.76-4.06s-9.86,6.25-12.38,4.27S391,272.7,391,272.7s-2-3.94-4.72-3.83c0,0-5.15,7.12-8.76,5.81s0-9.21,0-9.21a5.08,5.08,0,0,0-5.26-.66s-.66,8.66-2.52,8.33-3.07-8.83-3.07-8.83S364.34,263.06,361.28,265.47Z" style="fill:#fff;opacity:0.5"></path><path d="M373.33,307c-6.46-14.13-18-8.66-18-8.66S357.55,312.17,373.33,307Z" style="fill:#fff;opacity:0.30000000000000004"></path><path d="M364.78,294.55s7.67-12.71,6.21-18S368.51,285.85,364.78,294.55Z" style="opacity:0.1"></path><path d="M371.18,292.72s7.34-12.56,9.53-11.1S377.36,285.05,371.18,292.72Z" style="opacity:0.1"></path><path d="M372.16,284.39s2.93-8.55,4.39-7.81S372.16,284.39,372.16,284.39Z" style="opacity:0.1"></path><path d="M369.24,296.38c.66-5.26-5.85,2.63-6.21-1.83-.21-2.6-3-1.55-5.21-.22-.73,1.3-1.54,2.64-2.46,4,0,0,2.19,13.82,18,8.66,0,0,1.66-13.4,11.65-21.4l0,0C377.69,289.72,368.58,301.64,369.24,296.38Z" style="opacity:0.1"></path></g><g id="freepik--Apple--inject-54"><path d="M379.87,178.3s6.2-26.21,23.53-12.3C403.4,166,393.93,178.69,379.87,178.3Z" style="fill:#22577A"></path><path d="M379.87,178.3s6.2-26.21,23.53-12.3C403.4,166,393.93,178.69,379.87,178.3Z" style="fill:#fff;opacity:0.4"></path><path d="M394.05,165.92c6.17-1.48,8.48-.51,9.13-.08C386,152.31,379.87,178.3,379.87,178.3S386.42,167.73,394.05,165.92Z" style="fill:#fff;opacity:0.30000000000000004"></path><path d="M378.12,181.64s2.17-11.48-3.83-16.24c0,0,1.11-2.09,4.64-.93a36.32,36.32,0,0,1,1.19,17.17Z" style="fill:#263238"></path><path d="M378.12,181.64s2.17-11.48-3.83-16.24c0,0,1.11-2.09,4.64-.93a36.32,36.32,0,0,1,1.19,17.17Z" style="fill:#fff;opacity:0.4"></path><path d="M391.73,175.46c-3.93-.09-8.5,1.86-12.13,5-4.33-3.15-9.54-5.1-13.47-5-12.42.28-15,15.51-12.81,25.26,2,8.66,7.66,24.28,17.08,25.25,2.39.25,5.86-1.86,9-5,2.61,3.15,5.66,5.26,8,5,9.43-1,15.11-16.59,17.08-25.25C406.76,191,404.15,175.74,391.73,175.46Z" style="fill:#22577A"></path><path d="M405.25,193.74c-.05,8.48-7.65,18.9-14.46,18.9s-6-6.84-10.84-6.84-4.5,10.51-9.5,10.51-6.66-8-9.5-7.67c-1.79.21-2.92,2.63-3.5,4.38,3,6.48,7.28,12.37,12.95,12.95,2.39.25,5.86-1.86,9-5,2.61,3.15,5.66,5.26,8,5,9.43-1,15.11-16.59,17.08-25.25A30,30,0,0,0,405.25,193.74Z" style="opacity:0.1"></path><path d="M356,195.81s.67-16.06,7-15.87S359.29,185.47,356,195.81Z" style="fill:#fff;opacity:0.2"></path><path d="M378.93,164.47c-3.53-1.16-4.64.93-4.64.93S378.49,167.31,378.93,164.47Z" style="fill:#263238"></path></g><g id="freepik--Tomato--inject-54"><path d="M353.06,106.9a22.08,22.08,0,0,0-3.83.33,21.4,21.4,0,0,1-7.23,0,22.11,22.11,0,0,0-3.84-.33c-12.22,0-22.14,9.56-22.14,21.37s9.92,21.37,22.14,21.37a20.89,20.89,0,0,0,2.39-.13,47.64,47.64,0,0,1,10.13,0,20.84,20.84,0,0,0,2.38.13c12.23,0,22.14-9.57,22.14-21.37S365.29,106.9,353.06,106.9Z" style="fill:#22577A"></path><path d="M353.06,106.9a22.08,22.08,0,0,0-3.83.33,21.4,21.4,0,0,1-7.23,0,22.11,22.11,0,0,0-3.84-.33c-12.22,0-22.14,9.56-22.14,21.37s9.92,21.37,22.14,21.37a20.89,20.89,0,0,0,2.39-.13,47.64,47.64,0,0,1,10.13,0,20.84,20.84,0,0,0,2.38.13c12.23,0,22.14-9.57,22.14-21.37S365.29,106.9,353.06,106.9Z" style="opacity:0.1"></path><path d="M323.57,118.46c1.66-3.2,4-5.76,6.12-4.9,1.47.61-.46,3.53,1.36,4.24s3.51-2.54,5.32-2.69,1.36,4,3.74,4.1,2-3.81,3.52-3.67c1.69.16,1.13,9.81-.91,9.88-1.25,0-1.13-3-2.72-3-2.76,0-4.65,4.09-7.14,4.09s-.79-4.37-2.61-4.8-4.76,6.5-7.25,4.8S322.42,120.67,323.57,118.46Z" style="fill:#fff;opacity:0.2"></path><path d="M353.06,149.64c12.23,0,22.14-9.57,22.14-21.37a20.94,20.94,0,0,0-6.57-15.19c1.25,1.23,10.49,11.08,2.12,23.31-8.94,13.09-18.17,8.19-29.09,10-10.74,1.76-21.24-5.56-21.59-5.81a22.33,22.33,0,0,0,18.09,9.08,20.89,20.89,0,0,0,2.39-.13,47.64,47.64,0,0,1,10.13,0A20.84,20.84,0,0,0,353.06,149.64Z" style="opacity:0.2"></path><path d="M344.14,105.85c-3.06.35-6.33-7.33-9.17-6.68,0,0,4.14,3.61,5.17,6.84,0,0-11.1-1.87-13.81,1.38,0,0,15.21-2.32,15,1.72-.08,1.32-3.49,1.55-3.49,4,0,0,4.14-2.84,7-2.71s4.64,4.26,4.64,4.26a8.31,8.31,0,0,1,0-4.52c.79-2.32,9.94-3.24,12.91-.13,0,0-2.74-5.17-10.1-3.58,0,0,4.16-4.16,9.2-3.26,0,0-5.18-2.78-11.05,2a3.73,3.73,0,0,1-4.3.27l-.92-.56S344.82,105.77,344.14,105.85Z" style="fill:#263238"></path><path d="M344.77,106.59c-.3-2.7,1.35-7.65-.84-10.82,0,0,2.64-1.8,4.19.58a12.9,12.9,0,0,1-1.61,10.24C346.27,107,344.93,108.09,344.77,106.59Z" style="fill:#263238"></path><path d="M344.77,106.59c-.3-2.7,1.35-7.65-.84-10.82,0,0,2.64-1.8,4.19.58a12.9,12.9,0,0,1-1.61,10.24C346.27,107,344.93,108.09,344.77,106.59Z" style="fill:#fff;opacity:0.2"></path><path d="M348.12,96.35c-1.55-2.38-4.19-.58-4.19-.58S346,98,348.12,96.35Z" style="fill:#fff;opacity:0.4"></path></g><g id="freepik--Pizza--inject-54"><path d="M99.86,339.53C112.92,331.3,130.58,326,151.48,326l1.05,47.2a2.23,2.23,0,0,1-3.35,2L102,348a4.33,4.33,0,0,1-2.18-3.77Z" style="fill:#22577A"></path><path d="M99.86,339.53C112.92,331.3,130.58,326,151.48,326l1.05,47.2a2.23,2.23,0,0,1-3.35,2L102,348a4.33,4.33,0,0,1-2.18-3.77Z" style="fill:#fff;opacity:0.2"></path><path d="M152.24,325.3v45.13s-4.91-2.91-6.59-3.8c-4.19-2.19-12.83-6.09-16.88-8.54-3.46-2.09-9.91-7.06-13.49-8.94-2.23-1.17-7-2.82-9.17-4.11-1.58-1-5.81-4.51-5.81-4.51-1.11-.64.07-4,1.19-4.63C114.81,328.28,132,325.3,152.24,325.3Z" style="fill:#22577A"></path><path d="M152.24,325.3v45.13s-4.91-2.91-6.59-3.8c-4.19-2.19-12.83-6.09-16.88-8.54-3.46-2.09-9.91-7.06-13.49-8.94-2.23-1.17-7-2.82-9.17-4.11-1.58-1-5.81-4.51-5.81-4.51-1.11-.64.07-4,1.19-4.63C114.81,328.28,132,325.3,152.24,325.3Z" style="fill:#fff;opacity:0.5"></path><path d="M101.73,337.39c3.81,1.75,6.66,5.78,9.07,7.68s8.49,3.95,11,6.44c1.92,1.86,8.87,4.29,13,6.53,3.33,1.65,2.38,6.57,2.52,8.91s-.43,3.29,1,5.34,2.63,10.68,3.29,1.24,3.37-8.2,3.4-8.19c3.16,1.74,6.11,3.14,6.11,3.14,2.32,1.15-.07,16.76,1.91,16.47s1-19.1-.08-23.49.66-12.51.15-17.34,1-17.86,0-19.47-10.54.52-18.59,1-16.09,3.51-19.61,4.68S97.93,335.63,101.73,337.39Zm38.4,25.39s1.29,8.72-.32,6.64C137.68,366.67,140.13,362.78,140.13,362.78Z" style="fill:#22577A"></path><path d="M101.73,337.39c3.81,1.75,6.66,5.78,9.07,7.68s8.49,3.95,11,6.44c1.92,1.86,8.87,4.29,13,6.53,3.33,1.65,2.38,6.57,2.52,8.91s-.43,3.29,1,5.34,2.63,10.68,3.29,1.24,3.37-8.2,3.4-8.19c3.16,1.74,6.11,3.14,6.11,3.14,2.32,1.15-.07,16.76,1.91,16.47s1-19.1-.08-23.49.66-12.51.15-17.34,1-17.86,0-19.47-10.54.52-18.59,1-16.09,3.51-19.61,4.68S97.93,335.63,101.73,337.39Zm38.4,25.39s1.29,8.72-.32,6.64C137.68,366.67,140.13,362.78,140.13,362.78Z" style="fill:#fff;opacity:0.7000000000000001"></path><g style="opacity:0.1"><path d="M107.62,332.86c2.89-1.08,5.94-2,7.35-2.5s3.65-1.26,6.3-2.06a6.07,6.07,0,0,0-2.43,4C118.84,333.89,113.16,332.52,107.62,332.86Z"></path><path d="M134.58,325.68c3.76-.24,7.84-.83,11.23-1.22-1.74,1-3.6,2.24-3.7,3.34-.14,1.51-3.85-.95-8.44-2.05Z"></path></g><path d="M149.87,332c-4.27-.61-9.56-1-16,2.18s-19.49,4.44-21.67,6.72,4.36,6.62,11.36,5.58,9.93-2.56,11.26,2.17.62,6.63,5.18,7.86,4.75,5.77,7.4,7.38,5.39,3.5,2.65-8.23,1.13-11.93.38-15.81S152.92,332.39,149.87,332Z" style="fill:#22577A"></path><path d="M149.87,332c-4.27-.61-9.56-1-16,2.18s-19.49,4.44-21.67,6.72,4.36,6.62,11.36,5.58,9.93-2.56,11.26,2.17.62,6.63,5.18,7.86,4.75,5.77,7.4,7.38,5.39,3.5,2.65-8.23,1.13-11.93.38-15.81S152.92,332.39,149.87,332Z" style="fill:#fff;opacity:0.30000000000000004"></path><path d="M143.05,342.36a1.51,1.51,0,1,0-.76-2.27A1.73,1.73,0,0,0,143.05,342.36Z" style="fill:#263238"></path><path d="M131.27,340c1-.13,1.8-.89,1.7-1.69a1.73,1.73,0,0,0-2.06-1.23c-1,.13-1.8.89-1.7,1.69A1.73,1.73,0,0,0,131.27,340Z" style="fill:#263238"></path><path d="M129.23,351.15a2,2,0,1,0-1-3A2.28,2.28,0,0,0,129.23,351.15Z" style="fill:#263238"></path><path d="M145.43,354.54a1.73,1.73,0,0,0,2.31-.64c.31-.75-.22-.54-1.19-.94s-2-1.25-2.31-.5A1.73,1.73,0,0,0,145.43,354.54Z" style="fill:#263238"></path><path d="M141.79,334.84l1,.88a1,1,0,0,0,1.63-.77,3.51,3.51,0,0,0-2.64-3.51,3.44,3.44,0,0,0-3.87.67,1,1,0,0,0,.47,1.65l1.39.34-1,1a.82.82,0,0,0,.13,1.24l1,.65a.81.81,0,0,0,1.21-.38Z" style="fill:#263238"></path><path d="M140.57,350.74l1.25,1.09a.93.93,0,0,0,1.53-.56,3.74,3.74,0,0,0-2.32-4.08,3.22,3.22,0,0,0-3.88.22.92.92,0,0,0,.37,1.6l1.37.36-1.28,1.49a1,1,0,0,0,.19,1.42l.73.49a1,1,0,0,0,1.43-.45Z" style="fill:#263238"></path><path d="M118.78,340.1l1.44-.29c.63-.13.71-.87.14-1.32a4,4,0,0,0-4.44-.53,2.15,2.15,0,0,0-1.39,2.74,1,1,0,0,0,1.53.58l.86-.75.76,1.63a1.12,1.12,0,0,0,1.3.6l.71-.24c.5-.17.59-.75.19-1.2Z" style="fill:#263238"></path><path d="M143.05,342.36a1.51,1.51,0,1,0-.76-2.27A1.73,1.73,0,0,0,143.05,342.36Z" style="fill:#fff;opacity:0.2"></path><path d="M131.27,340c1-.13,1.8-.89,1.7-1.69a1.73,1.73,0,0,0-2.06-1.23c-1,.13-1.8.89-1.7,1.69A1.73,1.73,0,0,0,131.27,340Z" style="fill:#fff;opacity:0.2"></path><path d="M129.23,351.15a2,2,0,1,0-1-3A2.28,2.28,0,0,0,129.23,351.15Z" style="fill:#fff;opacity:0.2"></path><path d="M145.43,354.54a1.73,1.73,0,0,0,2.31-.64c.31-.75-.22-.54-1.19-.94s-2-1.25-2.31-.5A1.73,1.73,0,0,0,145.43,354.54Z" style="fill:#fff;opacity:0.2"></path><path d="M141.79,334.84l1,.88a1,1,0,0,0,1.63-.77,3.51,3.51,0,0,0-2.64-3.51,3.44,3.44,0,0,0-3.87.67,1,1,0,0,0,.47,1.65l1.39.34-1,1a.82.82,0,0,0,.13,1.24l1,.65a.81.81,0,0,0,1.21-.38Z" style="fill:#fff;opacity:0.8"></path><path d="M140.57,350.74l1.25,1.09a.93.93,0,0,0,1.53-.56,3.74,3.74,0,0,0-2.32-4.08,3.22,3.22,0,0,0-3.88.22.92.92,0,0,0,.37,1.6l1.37.36-1.28,1.49a1,1,0,0,0,.19,1.42l.73.49a1,1,0,0,0,1.43-.45Z" style="fill:#fff;opacity:0.8"></path><path d="M118.78,340.1l1.44-.29c.63-.13.71-.87.14-1.32a4,4,0,0,0-4.44-.53,2.15,2.15,0,0,0-1.39,2.74,1,1,0,0,0,1.53.58l.86-.75.76,1.63a1.12,1.12,0,0,0,1.3.6l.71-.24c.5-.17.59-.75.19-1.2Z" style="fill:#fff;opacity:0.8"></path></g><g id="freepik--Sandwich--inject-54"><path d="M75.72,296c-1.31-9.46,15-8.49,34.69-11.22s35.12-8.09,36.43,1.36-14.93,9.36-34.57,12.08S77,305.45,75.72,296Z" style="fill:#22577A"></path><path d="M75.72,296c-1.31-9.46,15-8.49,34.69-11.22s35.12-8.09,36.43,1.36-14.93,9.36-34.57,12.08S77,305.45,75.72,296Z" style="fill:#fff;opacity:0.30000000000000004"></path><path d="M78.62,287.81,76.39,293c-.61,1.43,1,2.71,2.66,2.07l8.12-3.25a4.76,4.76,0,0,1,3.22-.1l7.72,2.61a2.37,2.37,0,0,0,1.91-.2l7.78-4.6a4.65,4.65,0,0,1,4.36-.2l6.64,3.3a1.36,1.36,0,0,0,1.36-.13l7.61-5.68a4.19,4.19,0,0,1,2.61-.8l12.93.4c1,0,1.62-.95,1-1.61l-6-6.8-57.87,7.42Z" style="fill:#22577A"></path><path d="M78.62,287.81,76.39,293c-.61,1.43,1,2.71,2.66,2.07l8.12-3.25a4.76,4.76,0,0,1,3.22-.1l7.72,2.61a2.37,2.37,0,0,0,1.91-.2l7.78-4.6a4.65,4.65,0,0,1,4.36-.2l6.64,3.3a1.36,1.36,0,0,0,1.36-.13l7.61-5.68a4.19,4.19,0,0,1,2.61-.8l12.93.4c1,0,1.62-.95,1-1.61l-6-6.8-57.87,7.42Z" style="fill:#fff;opacity:0.7000000000000001"></path><path d="M135.45,283.46a4.21,4.21,0,0,0,0-1.32l-16.3,1.9a3.94,3.94,0,0,0-.35,3.07c-.14,1.71.9,4,7.63,3.48,10.59-.76,9.2-7.15,9.2-7.15Z" style="fill:#263238"></path><path d="M119.13,284s-3.48,6,7.1,5.25,9.2-7.15,9.2-7.15Z" style="fill:#fff;opacity:0.30000000000000004"></path><path d="M97.94,286.24l-16.3,1.91s-1.78,2.49-1,4.35c-.13,1.81,1,3.67,6.74,3.27,10.58-.76,10.75-8.22,10.75-8.22l-.42.05A6.67,6.67,0,0,0,97.94,286.24Z" style="fill:#263238"></path><path d="M81.64,288.15s-5,7.07,5.54,6.31,10.76-8.22,10.76-8.22Z" style="fill:#fff;opacity:0.30000000000000004"></path><path d="M117.05,285.34a4.62,4.62,0,0,0,0-1.32l-16.3,1.91a4,4,0,0,0-.36,3.07c-.13,1.71.9,4,7.64,3.48,10.58-.76,9.2-7.15,9.2-7.15Z" style="fill:#263238"></path><path d="M100.73,285.93s-3.49,6,7.1,5.24S117,284,117,284Z" style="fill:#fff;opacity:0.30000000000000004"></path><path d="M79.23,289.64s-6.48,1.82-4.84,2.94-.11,3.77,1.89,3.91,3.42-3.44,6.22-2.13,4.14-1.78,4.49-3.88-6.93-1-6.93-1Z" style="fill:#22577A"></path><path d="M95,287.5s-6.47,1.82-4.83,2.94S90,294.21,92,294.35s3.41-3.44,6.21-2.13,4.15-1.78,4.49-3.88-6.93-.95-6.93-.95Z" style="fill:#22577A"></path><path d="M122.31,284.59s6.61,1.21,5.08,2.48.46,3.74-1.52,4.07-3.72-3.12-6.39-1.56-4.29-1.39-4.82-3.45,6.81-1.58,6.81-1.58Z" style="fill:#22577A"></path><path d="M141.44,281.37s7.19-1.73,5.84-.18,3.49,2.15,1.87,3.22-6,.9-7.8,2.5-2.88-.91-4.45-.43-4.37-.26-4.93-1.6S141.44,281.37,141.44,281.37Z" style="fill:#22577A"></path><path d="M145.41,275.87c1.32,9.45-15,8.49-34.68,11.21s-35.13,8.1-36.44-1.35,13.78-17.66,33.42-20.39S144.1,266.41,145.41,275.87Z" style="fill:#22577A"></path><path d="M145.41,275.87c1.32,9.45-15,8.49-34.68,11.21s-35.13,8.1-36.44-1.35,13.78-17.66,33.42-20.39S144.1,266.41,145.41,275.87Z" style="fill:#fff;opacity:0.4"></path><path d="M107.71,265.34c-18.59,2.58-33.1,10.07-33.48,18.89.52,1.51,1.55,3.07,3.57,3.06,3.93,0,12.16-4.23,16.36-2.27s15.35-4.12,19.49-2.63S131.86,279,135.91,279s10.12,1.5,9.5-3.16C144.1,266.41,127.35,262.62,107.71,265.34Z" style="fill:#fff;opacity:0.5"></path><g style="opacity:0.2"><path d="M113.37,264.73c-1,.08-2.08.18-3.13.3-2.87,3.52-7.59,9.63-6.13,10S110.3,269,113.37,264.73Z"></path><path d="M95.79,267.82c-1.25.36-2.46.74-3.64,1.14-2.72,3.3-8.37,10.4-6.79,10.82S93,271.87,95.79,267.82Z"></path><path d="M126.47,264.81c-2.82,3.54-6.33,8.32-5,8.67s4.84-4.28,7.8-8.31Q127.9,265,126.47,264.81Z"></path></g></g><g id="freepik--Drink--inject-54"><path d="M124.45,210.28c.55-4.8-.35-9-2.38-14.56C120,190,115,187.28,111.34,184c-2.6-2.35-6.11-10.79-7.52-14.36a1.78,1.78,0,0,0-2.27-1L95.26,171a1.78,1.78,0,0,0-1.08,2.24c1.24,3.64,4,12.36,3.53,15.83-.66,4.81-2.74,10.13-.65,15.85,2,5.55,4.06,9.34,7.58,12.66a10.65,10.65,0,0,1,2.93,8.54c-.46,2.68-.39,5.28,1.23,10.54a4.75,4.75,0,0,0,6.17,3.06l15.88-5.81a4.75,4.75,0,0,0,2.74-6.32c-2.16-5.06-3.78-7.09-5.87-8.85A10.65,10.65,0,0,1,124.45,210.28Z" style="fill:#22577A"></path><path d="M124.45,210.28c.55-4.8-.35-9-2.38-14.56C120,190,115,187.28,111.34,184c-2.6-2.35-6.11-10.79-7.52-14.36a1.78,1.78,0,0,0-2.27-1L95.26,171a1.78,1.78,0,0,0-1.08,2.24c1.24,3.64,4,12.36,3.53,15.83-.66,4.81-2.74,10.13-.65,15.85,2,5.55,4.06,9.34,7.58,12.66a10.65,10.65,0,0,1,2.93,8.54c-.46,2.68-.39,5.28,1.23,10.54a4.75,4.75,0,0,0,6.17,3.06l15.88-5.81a4.75,4.75,0,0,0,2.74-6.32c-2.16-5.06-3.78-7.09-5.87-8.85A10.65,10.65,0,0,1,124.45,210.28Z" style="fill:#fff;opacity:0.5"></path><path d="M103.22,167.74l-9.85,3.6.61,2.48.48-1a.88.88,0,0,1,1.11-.45l.18.07a.88.88,0,0,0,1.11-.45l.1-.23a.89.89,0,0,1,1.17-.43l.18.08a.86.86,0,0,0,1.16-.42l.08-.18a.89.89,0,0,1,1.17-.43l.17.09a.89.89,0,0,0,1.17-.43l.08-.18a.88.88,0,0,1,1.17-.42l1,.45Z" style="fill:#22577A"></path><path d="M103.22,167.74l-9.85,3.6.61,2.48.48-1a.88.88,0,0,1,1.11-.45l.18.07a.88.88,0,0,0,1.11-.45l.1-.23a.89.89,0,0,1,1.17-.43l.18.08a.86.86,0,0,0,1.16-.42l.08-.18a.89.89,0,0,1,1.17-.43l.17.09a.89.89,0,0,0,1.17-.43l.08-.18a.88.88,0,0,1,1.17-.42l1,.45Z" style="opacity:0.2"></path><path d="M103,168.19l-9.23,3.38a1.13,1.13,0,0,1-1.45-.68l0-.06a1.13,1.13,0,0,1,.67-1.45l9.23-3.38a1.13,1.13,0,0,1,1.45.68l0,.06A1.12,1.12,0,0,1,103,168.19Z" style="fill:#22577A"></path><path d="M121.8,210h0c.46-4-.14-7.64-2.23-13.34-1.34-3.66-4.15-5.89-7.13-8.25-1-.76-2-1.55-2.88-2.38-.23-.21-.45-.45-.69-.71a22.36,22.36,0,0,1-8.46,3.25c0,.29,0,.57-.06.83-.17,1.22-.42,2.47-.66,3.67-.76,3.73-1.47,7.25-.13,10.91,2.09,5.7,4,8.85,6.91,11.63a13.26,13.26,0,0,1,3.73,10.93c-.39,2.27-.33,4.52,1.14,9.31a2.07,2.07,0,0,0,1.07,1.25,2.1,2.1,0,0,0,1.65.09l15.88-5.81a2.13,2.13,0,0,0,1.2-1.14,2.08,2.08,0,0,0,0-1.64c-2-4.61-3.37-6.36-5.13-7.85A13.28,13.28,0,0,1,121.8,210Z" style="fill:#263238"></path><path d="M112.88,223.89S111.52,235,114.22,235,112.88,223.89,112.88,223.89Z" style="fill:#fff;opacity:0.30000000000000004"></path><path d="M118.13,223.74s.67,9.31,3.18,8.7S118.13,223.74,118.13,223.74Z" style="fill:#fff;opacity:0.30000000000000004"></path><path d="M96.52,175.3a28.71,28.71,0,0,1,3.2,8.75c.69,4.5-.94,11.21,2.21,11.48S102.66,181.44,96.52,175.3Z" style="fill:#fff;opacity:0.30000000000000004"></path><g style="opacity:0.7000000000000001"><path d="M109.18,189.57a1.66,1.66,0,1,1-2.13-1A1.66,1.66,0,0,1,109.18,189.57Z" style="fill:#fff"></path><path d="M112.83,193.21a1.09,1.09,0,0,1-.65,1.39,1.09,1.09,0,0,1-.75-2A1.09,1.09,0,0,1,112.83,193.21Z" style="fill:#fff"></path><path d="M110.13,197a.81.81,0,1,1-1-.48A.8.8,0,0,1,110.13,197Z" style="fill:#fff"></path><path d="M113,216.4a.81.81,0,0,1-1.53.56.81.81,0,1,1,1.53-.56Z" style="fill:#fff"></path><path d="M116.41,216.69a.81.81,0,0,1-.48,1.05.83.83,0,0,1-1.05-.49.82.82,0,0,1,.49-1A.8.8,0,0,1,116.41,216.69Z" style="fill:#fff"></path><path d="M112.83,199.54a.4.4,0,0,1-.24.52.41.41,0,1,1-.28-.77A.41.41,0,0,1,112.83,199.54Z" style="fill:#fff"></path><path d="M112.91,213.72a.41.41,0,0,1-.77.28.41.41,0,0,1,.77-.28Z" style="fill:#fff"></path></g></g><g id="freepik--Donut--inject-54"><path d="M179.15,138.24c-3.05,13.78-19.73,14.92-39,10.64s-34-12.35-30.89-26.13,20-16.38,39.36-12.1S182.2,124.46,179.15,138.24Z" style="fill:#22577A"></path><path d="M179.15,138.24c-3.05,13.78-19.73,14.92-39,10.64s-34-12.35-30.89-26.13,20-16.38,39.36-12.1S182.2,124.46,179.15,138.24Z" style="fill:#fff;opacity:0.6000000000000001"></path><path d="M178.14,137.72c1.22.11,1.22-3.51,1-6.68-2.4-9.93-14.81-16.91-30.55-20.39-19.32-4.28-36.31-1.68-39.37,12.1-.06.32-.12.63-.17.94a3.23,3.23,0,0,0,1.78,2.38c2.63,1.06,5.45-2.62,8.7-.85s2,5.6,6.29,6.65,6.58-3,9.58-1.89,5.25,6.52,10.43,7.76,7.3-3.17,12.2-2.85,4.4,3.46,9.14,4.51,6-5.37,7.82-5.53S176,137.53,178.14,137.72Z" style="fill:#22577A"></path><path d="M163.63,124.25c-.58,2.62-8.64,2.47-18.15.37s-16.87-5.38-16.29-8,7.92.73,17.43,2.83S164.2,121.64,163.63,124.25Z" style="fill:#263238;opacity:0.1"></path><path d="M163.35,123.27a1.05,1.05,0,0,1,.28,1c-.58,2.62-8.64,2.47-18.15.37s-16.87-5.38-16.29-8a1,1,0,0,1,.67-.78c-1,0-1.62.31-1.78,1-.61,2.76,7,7,17.09,9.18s18.75,1.65,19.36-1.11C164.68,124.23,164.25,123.7,163.35,123.27Z" style="opacity:0.2"></path><path d="M134.9,121.41a64.64,64.64,0,0,0,10.58,3.21,59.58,59.58,0,0,0,12.2,1.58c-1.73-1-6-1.76-11-2.86C141.15,122.12,136.57,120.81,134.9,121.41Z" style="opacity:0.1"></path><path d="M127,122.61l-6.86,1.21a1,1,0,0,1-1.16-.81h0a1,1,0,0,1,.81-1.15l6.87-1.22a1,1,0,0,1,1.15.81h0A1,1,0,0,1,127,122.61Z" style="fill:#22577A"></path><path d="M115.63,119.8l-5.44,2.48a1,1,0,0,1-1.32-.5h0a1,1,0,0,1,.49-1.31L114.8,118a1,1,0,0,1,1.32.49h0A1,1,0,0,1,115.63,119.8Z" style="fill:#22577A"></path><path d="M129.18,109.33l-6.87,1.21a1,1,0,0,1-1.15-.8h0a1,1,0,0,1,.81-1.16l6.86-1.21a1,1,0,0,1,1.16.8h0A1,1,0,0,1,129.18,109.33Z" style="fill:#22577A"></path><path d="M140,113.68l-5.42-4.38a1,1,0,0,1-.15-1.4h0a1,1,0,0,1,1.4-.15l5.42,4.38a1,1,0,0,1,.15,1.4h0A1,1,0,0,1,140,113.68Z" style="fill:#22577A"></path><path d="M130.94,114.26l-7,.48a1,1,0,0,1-1.06-.93h0a1,1,0,0,1,.93-1.06l7-.48a1,1,0,0,1,1.06.93h0A1,1,0,0,1,130.94,114.26Z" style="fill:#22577A"></path><path d="M123.86,117.25,117,116.1a1,1,0,0,1-.82-1.15h0a1,1,0,0,1,1.15-.82l6.87,1.15a1,1,0,0,1,.82,1.15h0A1,1,0,0,1,123.86,117.25Z" style="fill:#22577A"></path><path d="M152.12,115.33l-7-.51a1,1,0,0,1-.92-1.07h0a1,1,0,0,1,1.07-.92l6.95.51a1,1,0,0,1,.92,1.07h0A1,1,0,0,1,152.12,115.33Z" style="fill:#22577A"></path><path d="M163.84,121.12l-5.91-3.7a1,1,0,0,1-.32-1.37h0a1,1,0,0,1,1.38-.32l5.91,3.7a1,1,0,0,1,.32,1.37h0A1,1,0,0,1,163.84,121.12Z" style="fill:#22577A"></path><path d="M173.82,129.36l-6.95-.51a1,1,0,0,1-.93-1.07h0a1,1,0,0,1,1.07-.92l7,.51a1,1,0,0,1,.92,1.07h0A1,1,0,0,1,173.82,129.36Z" style="fill:#22577A"></path><path d="M171.2,134.27l6.87-1.21a1,1,0,0,1,1.15.8h0a1,1,0,0,1-.81,1.16l-6.86,1.21a1,1,0,0,1-1.16-.8h0A1,1,0,0,1,171.2,134.27Z" style="fill:#22577A"></path><path d="M169.24,132.79l-6.6-2.26a1,1,0,0,1-.61-1.27h0a1,1,0,0,1,1.26-.62l6.6,2.26a1,1,0,0,1,.62,1.27h0A1,1,0,0,1,169.24,132.79Z" style="fill:#22577A"></path><path d="M154.39,130.62l-6.95-.51a1,1,0,0,1-.92-1.07h0a1,1,0,0,1,1.06-.92l7,.51a1,1,0,0,1,.92,1.07h0A1,1,0,0,1,154.39,130.62Z" style="fill:#22577A"></path><path d="M147.5,135.08l-6.6-2.26a1,1,0,0,1-.62-1.26h0a1,1,0,0,1,1.26-.62l6.6,2.26a1,1,0,0,1,.62,1.26h0A1,1,0,0,1,147.5,135.08Z" style="fill:#22577A"></path><path d="M162.11,115.29l-6.6-2.25a1,1,0,0,1-.62-1.27h0a1,1,0,0,1,1.27-.62l6.59,2.26a1,1,0,0,1,.62,1.26h0A1,1,0,0,1,162.11,115.29Z" style="fill:#22577A"></path><path d="M139.29,128.19l-6.59-2.25a1,1,0,0,1-.62-1.27h0a1,1,0,0,1,1.26-.62l6.6,2.26a1,1,0,0,1,.62,1.26h0A1,1,0,0,1,139.29,128.19Z" style="fill:#22577A"></path><path d="M176.32,124.88l-6.45-2.65a1,1,0,0,1-.54-1.3h0a1,1,0,0,1,1.3-.54l6.45,2.65a1,1,0,0,1,.54,1.3h0A1,1,0,0,1,176.32,124.88Z" style="fill:#22577A"></path><g style="opacity:0.8"><path d="M127,122.61l-6.86,1.21a1,1,0,0,1-1.16-.81h0a1,1,0,0,1,.81-1.15l6.87-1.22a1,1,0,0,1,1.15.81h0A1,1,0,0,1,127,122.61Z" style="fill:#fff"></path><path d="M115.63,119.8l-5.44,2.48a1,1,0,0,1-1.32-.5h0a1,1,0,0,1,.49-1.31L114.8,118a1,1,0,0,1,1.32.49h0A1,1,0,0,1,115.63,119.8Z" style="fill:#fff;opacity:0.5"></path><path d="M129.18,109.33l-6.87,1.21a1,1,0,0,1-1.15-.8h0a1,1,0,0,1,.81-1.16l6.86-1.21a1,1,0,0,1,1.16.8h0A1,1,0,0,1,129.18,109.33Z" style="fill:#fff"></path><path d="M140,113.68l-5.42-4.38a1,1,0,0,1-.15-1.4h0a1,1,0,0,1,1.4-.15l5.42,4.38a1,1,0,0,1,.15,1.4h0A1,1,0,0,1,140,113.68Z" style="fill:#fff"></path><path d="M130.94,114.26l-7,.48a1,1,0,0,1-1.06-.93h0a1,1,0,0,1,.93-1.06l7-.48a1,1,0,0,1,1.06.93h0A1,1,0,0,1,130.94,114.26Z" style="fill:#fff;opacity:0.5"></path><path d="M123.86,117.25,117,116.1a1,1,0,0,1-.82-1.15h0a1,1,0,0,1,1.15-.82l6.87,1.15a1,1,0,0,1,.82,1.15h0A1,1,0,0,1,123.86,117.25Z" style="fill:#fff"></path><path d="M152.12,115.33l-7-.51a1,1,0,0,1-.92-1.07h0a1,1,0,0,1,1.07-.92l6.95.51a1,1,0,0,1,.92,1.07h0A1,1,0,0,1,152.12,115.33Z" style="fill:#fff"></path><path d="M163.84,121.12l-5.91-3.7a1,1,0,0,1-.32-1.37h0a1,1,0,0,1,1.38-.32l5.91,3.7a1,1,0,0,1,.32,1.37h0A1,1,0,0,1,163.84,121.12Z" style="fill:#fff;opacity:0.5"></path><path d="M173.82,129.36l-6.95-.51a1,1,0,0,1-.93-1.07h0a1,1,0,0,1,1.07-.92l7,.51a1,1,0,0,1,.92,1.07h0A1,1,0,0,1,173.82,129.36Z" style="fill:#fff"></path><path d="M171.2,134.27l6.87-1.21a1,1,0,0,1,1.15.8h0a1,1,0,0,1-.81,1.16l-6.86,1.21a1,1,0,0,1-1.16-.8h0A1,1,0,0,1,171.2,134.27Z" style="fill:#fff"></path><path d="M169.24,132.79l-6.6-2.26a1,1,0,0,1-.61-1.27h0a1,1,0,0,1,1.26-.62l6.6,2.26a1,1,0,0,1,.62,1.27h0A1,1,0,0,1,169.24,132.79Z" style="fill:#fff"></path><path d="M154.39,130.62l-6.95-.51a1,1,0,0,1-.92-1.07h0a1,1,0,0,1,1.06-.92l7,.51a1,1,0,0,1,.92,1.07h0A1,1,0,0,1,154.39,130.62Z" style="fill:#fff"></path><path d="M147.5,135.08l-6.6-2.26a1,1,0,0,1-.62-1.26h0a1,1,0,0,1,1.26-.62l6.6,2.26a1,1,0,0,1,.62,1.26h0A1,1,0,0,1,147.5,135.08Z" style="fill:#fff;opacity:0.5"></path><path d="M162.11,115.29l-6.6-2.25a1,1,0,0,1-.62-1.27h0a1,1,0,0,1,1.27-.62l6.59,2.26a1,1,0,0,1,.62,1.26h0A1,1,0,0,1,162.11,115.29Z" style="fill:#fff"></path><path d="M139.29,128.19l-6.59-2.25a1,1,0,0,1-.62-1.27h0a1,1,0,0,1,1.26-.62l6.6,2.26a1,1,0,0,1,.62,1.26h0A1,1,0,0,1,139.29,128.19Z" style="fill:#fff"></path><path d="M176.32,124.88l-6.45-2.65a1,1,0,0,1-.54-1.3h0a1,1,0,0,1,1.3-.54l6.45,2.65a1,1,0,0,1,.54,1.3h0A1,1,0,0,1,176.32,124.88Z" style="fill:#fff"></path></g></g><g id="freepik--Character--inject-54"><path d="M265.77,196s10.18,11.59.7,17.05l-7.71-8.52Z" style="fill:#ffc3bd"></path><path d="M264.89,197.06l-6.13,7.45,7.71,8.52C272.05,209,266.91,200.13,264.89,197.06Z" style="opacity:0.1"></path><path d="M256.57,184.73s5.73,4.21,11.43,13.21a18.33,18.33,0,0,1-8.95,9.29S245.66,192.57,256.57,184.73Z" style="fill:#263238"></path><path d="M256.57,184.73s5.73,4.21,11.43,13.21a18.33,18.33,0,0,1-8.95,9.29S245.66,192.57,256.57,184.73Z" style="opacity:0.7000000000000001"></path><path d="M266,286.86l2.18,117.26-7.48,1s-8.9-46.85-9.5-68.85c-.11-4.36-.19-14.06-1.33-20.32a256.6,256.6,0,0,1-3.64-26.48Z" style="fill:#ffc3bd"></path><path d="M267.93,403.15l-7.87,0a.74.74,0,0,0-.71.57l-1.62,7.4a1.21,1.21,0,0,0,.91,1.45,1.15,1.15,0,0,0,.26,0c3.27-.06,6.19-.25,10.26-.25,4.81,0,3.6.57,9.25.63,3.41,0,4-3.83,2.58-4-6.62-.82-8.53-2.83-11.09-5.2A2.93,2.93,0,0,0,267.93,403.15Z" style="fill:#263238"></path><path d="M262.64,246.51a334.7,334.7,0,0,1,4.67,56.08l-19.93,2L243,273.13s-4.51-12.61-2.59-24.4Z" style="fill:#22577A"></path><path d="M243,273.13l4.4,31.47,2.51-.25c2.43-9.57-4.34-38.64-4.34-38.64l-3.71,3.54C242.46,271.65,243,273.13,243,273.13Z" style="opacity:0.2"></path><path d="M243.57,289.13s-4.26,28.34-5.8,37.73c-3.22,19.7-14.7,78.37-14.7,78.37h-7.55s.72-48.26,4.94-69.74c.78-4,2.56-12.65,2.45-18.3a265.32,265.32,0,0,1,.73-28.06Z" style="fill:#ffc3bd"></path><path d="M223.46,403.15l-7.87,0a.73.73,0,0,0-.71.57l-1.63,7.4a1.21,1.21,0,0,0,.92,1.45,1.09,1.09,0,0,0,.26,0c3.27-.06,6.18-.25,10.26-.25,4.81,0,3.59.57,9.25.63,3.41,0,4-3.83,2.58-4-6.62-.82-8.53-2.83-11.09-5.2A3,3,0,0,0,223.46,403.15Z" style="fill:#263238"></path><path d="M246.92,248.69a336.54,336.54,0,0,1-4.58,56.21l-20-.58.82-31.78s-2.38-13.09,1.44-24.53Z" style="fill:#22577A"></path><path d="M215.81,186.52c1.8,5.72,7.06,25.54,7.59,63.23,0,0,24.49,2,39.66-2,0,0-1.19-8.25-1.78-20.9-.83-17.66-1.36-39.38-4.71-42.09-5.56-4.48-22.83-5.71-39.54-.58A1.88,1.88,0,0,0,215.81,186.52Z" style="fill:#263238"></path><path d="M228.63,181.56c2.69,2.17,11.14,7.71,19.1-.08A64.27,64.27,0,0,0,228.63,181.56Z" style="fill:#fff;opacity:0.4"></path><path d="M218.87,187.64l-2,2.55c.82,3.13,1.85,7.66,2.85,13.67a20.19,20.19,0,0,0,1.37-14.49Z" style="opacity:0.7000000000000001"></path><path d="M247.45,187.64s7.15,20.24,13.3,27.39c-.23-5-.49-9.93-.84-14.32-4.19-6.5-8.82-12.4-8.82-12.4Z" style="opacity:0.7000000000000001"></path><path d="M247.75,145.19s3.89.94,4.47-2.76c0,0,.88,3.85-1.34,4.43a4.77,4.77,0,0,1,2,5.22c-.94,3.41,0,4.94,0,4.94a9,9,0,0,1-1.59-5.16s1.08,7.26-2.87,5.66-2.87-11.71-2.87-11.71Z" style="fill:#263238"></path><path d="M247.75,145.19s3.89.94,4.47-2.76c0,0,.88,3.85-1.34,4.43a4.77,4.77,0,0,1,2,5.22c-.94,3.41,0,4.94,0,4.94a9,9,0,0,1-1.59-5.16s1.08,7.26-2.87,5.66-2.87-11.71-2.87-11.71Z" style="opacity:0.6000000000000001"></path><path d="M231.57,166.84s2.31,10.71-.39,14.4c0,0,8,4.46,13.55-.16a10.89,10.89,0,0,1-4-10.71Z" style="fill:#ffc3bd"></path><path d="M242.94,179.31a11,11,0,0,1-2.18-8.94l-9.19-3.53a1.77,1.77,0,0,0,0,.21C231.87,168.26,234.68,177.35,242.94,179.31Z" style="opacity:0.1"></path><path d="M214.68,185.45s-22.29,22.35-22.14,32.61c.13,8.63,19.7,19.19,25.88,22.31a3.91,3.91,0,0,0,3.57,0l2.8-1.43.79.35a1.32,1.32,0,0,0,1.9-1.1l.44-7a1.48,1.48,0,0,0-1.11-1.5l-3.84-1a1.42,1.42,0,0,0-1.59.63l-3,4.91s-15.87-13.93-15.11-17.8,11.27-12.78,14.94-18.14C220.36,195.25,223.14,191,214.68,185.45Z" style="fill:#ffc3bd"></path><path d="M203.39,196.19l9.16,9.58s11.16-8.07,8.53-16.4C217.27,177.32,208.18,190.73,203.39,196.19Z" style="fill:#263238"></path><path d="M231,153.69c-1.4,6.95-2.14,9.86.39,14.28,3.79,6.66,12.63,6.85,16.08.46,3.09-5.75,4.87-16.19-1.12-20.65a9.68,9.68,0,0,0-13.55,1.84A9.58,9.58,0,0,0,231,153.69Z" style="fill:#ffc3bd"></path><path d="M241.46,158.37c-.14.56,0,1.09.39,1.19s.78-.28.93-.83,0-1.09-.39-1.19S241.63,157.85,241.46,158.37Z" style="fill:#263238"></path><path d="M247.74,160.05c-.14.57,0,1.09.39,1.19s.79-.28.94-.83,0-1.09-.4-1.18S247.89,159.5,247.74,160.05Z" style="fill:#263238"></path><path d="M245.54,160.55a15.23,15.23,0,0,0,1.05,4.08,2.54,2.54,0,0,1-2.09-.15Z" style="fill:#ed893e"></path><path d="M239.27,156.44a.33.33,0,0,0,.39-.09,4,4,0,0,1,3.05-.95.35.35,0,0,0,.39-.29.33.33,0,0,0-.29-.37h0a4.63,4.63,0,0,0-3.64,1.18.33.33,0,0,0,0,.47h0A.15.15,0,0,0,239.27,156.44Z" style="fill:#263238"></path><path d="M250.4,157.65a.37.37,0,0,0,.35,0,.35.35,0,0,0,.07-.48,3.3,3.3,0,0,0-2.75-1.47.32.32,0,0,0-.32.33v0a.33.33,0,0,0,.35.32h0a2.68,2.68,0,0,1,2.14,1.19A.38.38,0,0,0,250.4,157.65Z" style="fill:#263238"></path><path d="M244.5,165.44c-1.58-2.66-8.05-3.29-9.94-3.82s-.75-5.15-.75-5.15l-.75-.68h-1.49l-1.39,2.76-.29,5.23a11.82,11.82,0,0,0,1.54,4.19c3.79,6.66,12.64,6.85,16.08.46a20.48,20.48,0,0,0,.88-1.88A3.36,3.36,0,0,0,244.5,165.44Z" style="fill:#263238"></path><path d="M244.5,165.44c-1.58-2.66-8.05-3.29-9.94-3.82s-.75-5.15-.75-5.15l-.75-.68h-1.49l-1.39,2.76-.29,5.23a11.82,11.82,0,0,0,1.54,4.19c3.79,6.66,12.64,6.85,16.08.46a20.48,20.48,0,0,0,.88-1.88A3.36,3.36,0,0,0,244.5,165.44Z" style="fill:#fff;opacity:0.5"></path><path d="M229.76,158.55s3.74,1.24,4.54-3.85,2.44-3.49,3.65-5.38,15.7.38,11.46-10.72a10.7,10.7,0,0,1-2.82,4.14s.49-5.75-7.1-3.14-13.32,9.24-13.32,9.24,1.48-.31,1.58,1.94S226.81,161,229.76,158.55Z" style="fill:#263238"></path><path d="M242.9,167a5.5,5.5,0,0,0,.81.27.16.16,0,0,0,.21-.11h0a.19.19,0,0,0-.13-.21,4.59,4.59,0,0,1-3.14-2.68.17.17,0,0,0-.21-.1.16.16,0,0,0-.11.21A4.75,4.75,0,0,0,242.9,167Z" style="fill:#263238"></path><path d="M245.09,181.83S258.74,218,266.47,213s-14.3-29.6-16.78-33.81l-1.55-6.73a1.89,1.89,0,0,0-1.36-1.38l-6.63-1.67a1.68,1.68,0,0,0-2,1.07l-.41,1.21a1.77,1.77,0,0,0,.1,1.35l3.08,6.3Z" style="fill:#ffc3bd"></path><path d="M251.34,181.36h0l-1.2-2.28h0a.72.72,0,0,0-1-.3l-2.29,1.2a.72.72,0,0,0-.3,1h0l-1.92,1,1.2,2.28,1.93-1h0a.72.72,0,0,0,1,.3l2.28-1.21A.71.71,0,0,0,251.34,181.36Z" style="fill:#22577A"></path><path d="M251.34,181.36h0l-1.2-2.28h0a.72.72,0,0,0-1-.3l-2.29,1.2a.72.72,0,0,0-.3,1h0l-1.92,1,1.2,2.28,1.93-1h0a.72.72,0,0,0,1,.3l2.28-1.21A.71.71,0,0,0,251.34,181.36Z" style="opacity:0.30000000000000004"></path><rect x="247.71" y="179.65" width="2.84" height="2.84" rx="0.36" transform="translate(293.17 -123.74) rotate(62.21)" style="fill:#263238"></rect><path d="M227.78,158.46a5.06,5.06,0,0,0,1.75,3.46c1.37,1.14,2.79.1,3-1.58.21-1.52-.25-3.94-1.91-4.46a2.29,2.29,0,0,0-2.82,1.58A2.26,2.26,0,0,0,227.78,158.46Z" style="fill:#ffc3bd"></path></g></svg>